<?xml version="1.0" encoding="UTF-8" standalone="no"?>
<!-- Created with Inkscape (http://www.inkscape.org/) -->

<svg
   width="148mm"
   height="105mm"
   viewBox="0 0 524.40946 372.04725"
   id="svg2"
   version="1.1"
   inkscape:version="1.1.2 (0a00cf5339, 2022-02-04)"
   sodipodi:docname="drawing1b.svg"
   inkscape:export-filename="/home/bmarron/Desktop/PSU/PhD_EES/2016SoE022_ESR655_Science-Communication/Works_InProgress/Preszy_Take2/graphics/drawing1f.png"
   inkscape:export-xdpi="500"
   inkscape:export-ydpi="500"
   xmlns:inkscape="http://www.inkscape.org/namespaces/inkscape"
   xmlns:sodipodi="http://sodipodi.sourceforge.net/DTD/sodipodi-0.dtd"
   xmlns="http://www.w3.org/2000/svg"
   xmlns:svg="http://www.w3.org/2000/svg"
   xmlns:rdf="http://www.w3.org/1999/02/22-rdf-syntax-ns#"
   xmlns:cc="http://creativecommons.org/ns#"
   xmlns:dc="http://purl.org/dc/elements/1.1/">
  <defs
     id="defs4">
    <marker
       inkscape:stockid="Arrow1Mend"
       orient="auto"
       refY="0.0"
       refX="0.0"
       id="Arrow1Mend"
       style="overflow:visible;"
       inkscape:isstock="true">
      <path
         id="path4513"
         d="M 0.0,0.0 L 5.0,-5.0 L -12.5,0.0 L 5.0,5.0 L 0.0,0.0 z "
         style="fill-rule:evenodd;stroke:#000000;stroke-width:1.0pt;"
         transform="scale(0.4) rotate(180) translate(10,0)" />
    </marker>
    <marker
       inkscape:stockid="Arrow2Mend"
       orient="auto"
       refY="0.0"
       refX="0.0"
       id="Arrow2Mend"
       style="overflow:visible;"
       inkscape:isstock="true">
      <path
         id="path4531"
         style="fill-rule:evenodd;stroke-width:0.62500000;stroke-linejoin:round;"
         d="M 8.7185878,4.0337352 L -2.2072895,0.016013256 L 8.7185884,-4.0017078 C 6.9730900,-1.6296469 6.9831476,1.6157441 8.7185878,4.0337352 z "
         transform="scale(0.6) rotate(180) translate(0,0)" />
    </marker>
    <marker
       inkscape:stockid="Arrow1Lend"
       orient="auto"
       refY="0.0"
       refX="0.0"
       id="marker4346"
       style="overflow:visible;"
       inkscape:isstock="true">
      <path
         id="path4348"
         d="M 0.0,0.0 L 5.0,-5.0 L -12.5,0.0 L 5.0,5.0 L 0.0,0.0 z "
         style="fill-rule:evenodd;stroke:#000000;stroke-width:1pt;stroke-opacity:1;fill:#000000;fill-opacity:1"
         transform="scale(0.8) rotate(180) translate(12.5,0)" />
    </marker>
    <marker
       inkscape:isstock="true"
       style="overflow:visible;"
       id="marker4262"
       refX="0.0"
       refY="0.0"
       orient="auto"
       inkscape:stockid="Arrow1Mend">
      <path
         transform="scale(0.4) rotate(180) translate(10,0)"
         style="fill-rule:evenodd;stroke:#000000;stroke-width:1pt;stroke-opacity:1;fill:#000000;fill-opacity:1"
         d="M 0.0,0.0 L 5.0,-5.0 L -12.5,0.0 L 5.0,5.0 L 0.0,0.0 z "
         id="path4264" />
    </marker>
    <marker
       inkscape:isstock="true"
       style="overflow:visible;"
       id="marker4202"
       refX="0.0"
       refY="0.0"
       orient="auto"
       inkscape:stockid="Arrow2Mend">
      <path
         transform="scale(0.6) rotate(180) translate(0,0)"
         d="M 8.7185878,4.0337352 L -2.2072895,0.016013256 L 8.7185884,-4.0017078 C 6.9730900,-1.6296469 6.9831476,1.6157441 8.7185878,4.0337352 z "
         style="fill-rule:evenodd;stroke-width:0.625;stroke-linejoin:round;stroke:#000000;stroke-opacity:1;fill:#000000;fill-opacity:1"
         id="path4204" />
    </marker>
    <filter
       style="color-interpolation-filters:sRGB"
       id="filter4499"
       inkscape:label="filter1">
      <feBlend
         mode="normal"
         id="feBlend4501"
         in2="SourceGraphic" />
    </filter>
    <filter
       style="color-interpolation-filters:sRGB"
       id="filter4503"
       inkscape:label="filter2">
      <feMorphology
         id="feMorphology4505"
         operator="dilate"
         radius="26.899999999999999" />
      <feMorphology
         id="feMorphology4507"
         operator="dilate"
         radius="24.800000000000001" />
    </filter>
    <marker
       inkscape:stockid="Arrow1Lend"
       orient="auto"
       refY="0"
       refX="0"
       id="marker4346-3"
       style="overflow:visible"
       inkscape:isstock="true">
      <path
         inkscape:connector-curvature="0"
         id="path4348-6"
         d="M 0,0 5,-5 -12.5,0 5,5 0,0 Z"
         style="fill:#000000;fill-opacity:1;fill-rule:evenodd;stroke:#000000;stroke-width:1pt;stroke-opacity:1"
         transform="matrix(-0.8,0,0,-0.8,-10,0)" />
    </marker>
  </defs>
  <sodipodi:namedview
     id="base"
     pagecolor="#ffffff"
     bordercolor="#666666"
     borderopacity="1.0"
     inkscape:pageopacity="1"
     inkscape:pageshadow="2"
     inkscape:zoom="1.1465059"
     inkscape:cx="288.26716"
     inkscape:cy="181.42078"
     inkscape:document-units="mm"
     inkscape:current-layer="layer1"
     showgrid="false"
     inkscape:window-width="1280"
     inkscape:window-height="696"
     inkscape:window-x="86"
     inkscape:window-y="0"
     inkscape:window-maximized="0"
     inkscape:snap-text-baseline="true"
     inkscape:snap-others="false"
     inkscape:pagecheckerboard="0" />
  <metadata
     id="metadata7">
    <rdf:RDF>
      <cc:Work
         rdf:about="">
        <dc:format>image/svg+xml</dc:format>
        <dc:type
           rdf:resource="http://purl.org/dc/dcmitype/StillImage" />
        <dc:title />
      </cc:Work>
    </rdf:RDF>
  </metadata>
  <g
     inkscape:label="Layer 1"
     inkscape:groupmode="layer"
     id="layer1"
     transform="translate(0,-680.31497)"
     style="display:inline">
    <text
       xml:space="preserve"
       style="font-style:normal;font-variant:normal;font-weight:normal;font-stretch:normal;line-height:0%;font-family:'Latin Modern Mono';-inkscape-font-specification:'Latin Modern Mono, Normal';text-align:start;letter-spacing:0px;word-spacing:0px;writing-mode:lr-tb;text-anchor:start;fill:#000000;fill-opacity:1;stroke:none;stroke-width:1px;stroke-linecap:butt;stroke-linejoin:miter;stroke-opacity:1"
       x="130.71429"
       y="971.64789"
       id="text4477"><tspan
         sodipodi:role="line"
         id="tspan4481"
         x="130.71429"
         y="971.64789"
         style="font-size:15px;line-height:1.25"> </tspan></text>
    <text
       xml:space="preserve"
       style="font-style:normal;font-weight:normal;line-height:0%;font-family:sans-serif;letter-spacing:0px;word-spacing:0px;fill:#000000;fill-opacity:1;stroke:none;stroke-width:1px;stroke-linecap:butt;stroke-linejoin:miter;stroke-opacity:1"
       x="421.1499"
       y="791.28888"
       id="text3468"><tspan
         sodipodi:role="line"
         id="tspan3470"
         x="421.1499"
         y="791.28888"
         style="font-size:40px;line-height:1.25"> </tspan></text>
    <flowRoot
       xml:space="preserve"
       id="flowRoot3493"
       style="font-style:normal;font-variant:normal;font-weight:normal;font-stretch:normal;line-height:0.01%;font-family:'Latin Modern Mono';-inkscape-font-specification:'Latin Modern Mono, Normal';text-align:start;letter-spacing:0px;word-spacing:0px;writing-mode:lr-tb;text-anchor:start;fill:#000000;fill-opacity:1;stroke:none;stroke-width:1px;stroke-linecap:butt;stroke-linejoin:miter;stroke-opacity:1"
       transform="translate(0,680.31495)"><flowRegion
         id="flowRegion3495"><rect
           id="rect3497"
           width="81.988235"
           height="35.760826"
           x="423.89664"
           y="249.06488" /></flowRegion><flowPara
         id="flowPara3499"
         style="font-size:30px;line-height:1.25"> </flowPara></flowRoot>
    <g
       id="g5996"
       transform="translate(-7.4758175,16.57741)">
      <g
         transform="matrix(1.1059616,0,0,1.198398,-32.176525,-274.41833)"
         id="g4446">
        <path
           style="fill:none;fill-rule:evenodd;stroke:#000000;stroke-width:1px;stroke-linecap:butt;stroke-linejoin:miter;stroke-opacity:1"
           d="m 197.77482,945.73387 c -0.0727,-0.14537 -0.14535,-0.29074 -0.21805,-0.43611 0,-0.14536 0.046,-0.29819 0,-0.4361 -0.065,-0.19504 -0.34421,-0.25223 -0.43611,-0.43611 -0.10279,-0.20558 -0.16235,-0.43118 -0.21805,-0.65416 -0.0176,-0.0705 0.0325,-0.15306 0,-0.21806 -0.046,-0.0919 -0.17206,-0.12615 -0.21806,-0.21805 -0.0325,-0.065 0,-0.14535 0,-0.21805 0,-0.14537 0.046,-0.2982 0,-0.43611 -0.0325,-0.0975 -0.17205,-0.12616 -0.21805,-0.21806 -0.065,-0.13002 0.046,-0.29819 0,-0.4361 -0.24854,-0.74563 -0.18086,-0.16227 -0.65416,-0.87222 -0.0403,-0.0605 0.0325,-0.15305 0,-0.21805 -0.24107,-0.48213 -0.13534,-0.0677 -0.43611,-0.21806 -0.0919,-0.046 -0.14535,-0.14535 -0.21805,-0.21805 -0.29074,-0.29074 -0.58148,-0.58148 -0.87222,-0.87221 -0.21805,-0.21806 -0.43611,-0.43611 -0.65416,-0.65417 -0.0727,-0.0727 -0.18555,-0.12055 -0.21805,-0.21805 -0.046,-0.13791 0,-0.29074 0,-0.43611 -0.0727,-0.0727 -0.17206,-0.12615 -0.21806,-0.21805 -0.0485,-0.097 0.0332,-0.77252 0,-0.87222 -0.065,-0.19503 -0.34421,-0.25223 -0.43611,-0.4361 -0.10279,-0.20559 -0.14535,-0.43611 -0.21805,-0.65417 0,-0.0727 0.023,-0.14905 0,-0.21805 -0.0514,-0.15419 -0.17865,-0.27843 -0.21805,-0.43611 -0.048,-0.19215 0.0645,-1.17932 0,-1.30832 -0.0966,-0.19327 -0.52183,-0.45566 -0.65417,-0.65416 -0.1803,-0.27046 -0.25579,-0.60175 -0.4361,-0.87222 -0.12544,-0.18816 -0.48385,-0.48384 -0.65416,-0.65416 -0.0727,-0.0727 -0.17206,-0.12615 -0.21806,-0.21805 -0.0325,-0.065 0.0325,-0.15306 0,-0.21806 -0.046,-0.0919 -0.17205,-0.12615 -0.21805,-0.21805 -0.0325,-0.065 0.0325,-0.15305 0,-0.21805 -0.044,-0.0881 -0.86522,-0.86522 -0.87222,-0.87222 -0.5,-0.49996 0.0919,0.13791 -0.4361,-0.65416 -0.16774,-0.2516 -0.48643,-0.40256 -0.65417,-0.65416 -0.0403,-0.0605 0.0325,-0.15306 0,-0.21806 -0.0919,-0.18388 -0.3442,-0.25222 -0.4361,-0.4361 -0.0325,-0.065 0.0325,-0.15306 0,-0.21806 -0.046,-0.0919 -0.17206,-0.12615 -0.21806,-0.21805 -0.0325,-0.065 0.0403,-0.15756 0,-0.21806 -0.11403,-0.17105 -0.29074,-0.29073 -0.43611,-0.4361 0,-0.0727 0.0325,-0.15306 0,-0.21806 -0.046,-0.0919 -0.18555,-0.12055 -0.21805,-0.21805 -0.046,-0.13791 0.046,-0.2982 0,-0.43611 -0.0325,-0.0975 -0.14535,-0.14535 -0.21805,-0.21805 -0.21806,-0.21806 -0.40747,-0.46914 -0.65416,-0.65416 -0.13003,-0.0975 -0.30088,-0.12786 -0.43611,-0.21806 -0.32086,-0.2139 -0.55136,-0.65831 -0.87222,-0.87221 -0.13523,-0.0902 -0.30087,-0.12786 -0.43611,-0.21806 -0.17105,-0.11403 -0.29073,-0.29074 -0.4361,-0.4361 -0.21806,-0.21806 -0.43611,-0.43611 -0.65416,-0.65417 -0.0727,-0.0727 -0.12056,-0.18555 -0.21806,-0.21805 -0.13791,-0.046 -0.2982,0.046 -0.43611,0 -0.0975,-0.0325 -0.14535,-0.14535 -0.21805,-0.21805 -0.0727,-0.0727 -0.14535,-0.14536 -0.21805,-0.21806 -0.21806,-0.21805 -0.43611,-0.43611 -0.65417,-0.65416 -0.36342,-0.36342 -0.72684,-0.72684 -1.09026,-1.09027 -0.1148,-0.1148 -0.53771,-0.59596 -0.65417,-0.65416 -0.065,-0.0325 -0.15305,0.0325 -0.21805,0 -0.0919,-0.046 -0.13255,-0.16105 -0.21805,-0.21805 -0.13523,-0.0902 -0.30088,-0.12786 -0.43611,-0.21806 -0.32708,-0.21805 -0.21805,-0.4361 -0.65416,-0.65416 -0.13002,-0.065 -0.2982,0.046 -0.43611,0 -0.0975,-0.0325 -0.12615,-0.17205 -0.21805,-0.21805 -0.20559,-0.10279 -0.54436,0.26235 -0.65417,-0.21806 -0.0855,-0.057 -0.13585,-0.15635 -0.21805,-0.21805 -0.20965,-0.15724 -0.44451,-0.27887 -0.65416,-0.43611 -0.39918,-0.29938 -0.0214,-0.2252 -0.65416,-0.43611 -0.069,-0.023 -0.14906,0.023 -0.21806,0 -0.15418,-0.0514 -0.28192,-0.16665 -0.4361,-0.21805 -0.18319,-0.0611 -1.00287,0.0583 -1.09027,0 -0.17106,-0.11404 -0.24523,-0.35971 -0.43611,-0.43611 -0.0555,-0.0222 -1.95059,0 -1.96249,0 -0.29073,0 -0.58147,0 -0.87221,0 -0.14537,0 -0.29508,0.0353 -0.43611,0 -0.15767,-0.0394 -0.28192,-0.16665 -0.43611,-0.21805 -0.069,-0.023 -0.14905,0.023 -0.21805,0 -0.15419,-0.0514 -0.27843,-0.17865 -0.43611,-0.21805 -0.21154,-0.0529 -0.44729,0.069 -0.65416,0 -0.15419,-0.0514 -0.28192,-0.16666 -0.43611,-0.21806 -0.069,-0.023 -0.15305,0.0325 -0.21805,0 -0.1785,-0.0892 -0.37036,-0.55745 -0.65416,-0.43611 -0.21341,-0.0854 -0.44075,-0.13265 -0.65416,-0.21805 -0.15091,-0.0604 -0.28192,-0.16665 -0.43611,-0.21805 -0.13791,-0.046 -0.2982,0.046 -0.43611,0 -0.15419,-0.0514 -0.29074,-0.14536 -0.43611,-0.21806 -0.29073,-0.14537 -0.5704,-0.31538 -0.87221,-0.43611 -0.14987,-0.0599 -0.88377,0.0413 -1.09027,0 -0.22539,-0.0451 -0.42744,-0.18025 -0.65416,-0.21805 -0.25976,-0.0433 -1.2554,0 -1.52638,0 -0.9449,0 -1.8898,0 -2.8347,0 -0.31535,0 -1.29611,0.0461 -1.52638,0 -0.15937,-0.0319 -0.28192,-0.16665 -0.4361,-0.21805 -0.20687,-0.069 -0.4473,0.069 -0.65416,0 -0.0975,-0.0325 -0.12616,-0.17206 -0.21806,-0.21806 -0.13002,-0.065 -0.2982,0.046 -0.43611,0 -0.30837,-0.10279 -0.55347,-0.3724 -0.87221,-0.4361 -0.23633,-0.0473 -0.83793,0.0631 -1.09027,0 -0.22299,-0.0557 -0.43118,-0.16236 -0.65416,-0.21806 -0.17643,-0.0441 -1.05827,0 -1.09027,0 -0.0727,0 -0.15305,0.0325 -0.21805,0 -0.0919,-0.046 -0.12616,-0.17205 -0.21806,-0.21805 -0.11637,-0.0582 -0.87003,0.044 -1.09027,0 -0.29386,-0.0588 -0.57835,-0.15926 -0.87221,-0.21806 -0.14255,-0.0285 -0.29074,0 -0.43611,0 -0.50879,0 -1.01759,0 -1.52638,0 -0.36342,0 -0.72684,0 -1.09027,0 -0.0727,0 -0.15055,0.027 -0.21805,0 -0.30181,-0.12072 -0.56384,-0.33331 -0.87222,-0.4361 -0.24057,-0.0802 -0.99961,0.0617 -1.30832,0 -0.29387,-0.0588 -0.57661,-0.16876 -0.87221,-0.21806 -0.35848,-0.0597 -0.7318,0.0598 -1.09027,0 -0.22672,-0.0378 -0.43316,-0.15495 -0.65416,-0.21805 -0.28816,-0.0823 -0.59676,-0.1 -0.87222,-0.21805 -0.24088,-0.10324 -0.41084,-0.33881 -0.65416,-0.43611 -0.20246,-0.081 -0.43611,0 -0.65416,0 -0.21269,0 -1.56568,0.0358 -1.74443,0 -0.15938,-0.0319 -0.27844,-0.17866 -0.43611,-0.21806 -0.22588,-0.0565 -0.62218,0 -0.87222,0 -0.50879,0 -1.01758,0 -1.52637,0 -1.59906,0 -3.19813,0 -4.79719,0 -1.09027,0 -2.18054,0 -3.27081,0 -0.22675,0 -1.13679,-0.0429 -1.30832,0 -0.15767,0.0394 -0.27673,0.18616 -0.43611,0.21806 -0.21382,0.0428 -0.44261,-0.0529 -0.65416,0 -0.0997,0.0249 -0.11835,0.19315 -0.21805,0.21805 -0.21154,0.0529 -0.43611,0 -0.65416,0 -0.43611,0 -0.87222,0 -1.30833,0 -0.14536,0 -0.29507,-0.0353 -0.4361,0 -0.15768,0.0394 -0.29074,0.14536 -0.43611,0.21806 -0.29074,0.14536 -0.56384,0.33331 -0.87222,0.4361 -0.13791,0.046 -0.29073,0 -0.4361,0 -0.21806,0 -0.43611,0 -0.65417,0 -0.14536,0 -0.29356,-0.0285 -0.4361,0 -0.22539,0.0451 -0.42878,0.17296 -0.65416,0.21806 -0.14255,0.0285 -0.29074,0 -0.43611,0 -0.29074,0 -0.58148,0 -0.87222,0 -0.14537,0 -0.29356,-0.0285 -0.43611,0 -0.22538,0.0451 -0.42877,0.17295 -0.65416,0.21805 -0.35636,0.0713 -0.7305,-0.0514 -1.09027,0 -0.29667,0.0424 -0.57834,0.15925 -0.87221,0.21805 -0.19625,0.0392 -0.45355,0 -0.65416,0 -0.12995,0 -1.47278,-0.0268 -1.52638,0 -0.18388,0.0919 -0.27164,0.31276 -0.43611,0.43611 -0.37742,0.28306 -0.44236,0.21806 -0.87221,0.21806 -0.0727,0 -0.14756,-0.0176 -0.21806,0 -0.22298,0.0557 -0.42744,0.18025 -0.65416,0.21805 -0.35848,0.0597 -0.72684,0 -1.09027,0 -0.14537,0 -0.29074,0 -0.4361,0 -0.0727,0 -0.15996,-0.0436 -0.21806,0 -0.2467,0.18502 -0.40746,0.46914 -0.65416,0.65416 -0.0858,0.0643 -0.95607,-0.0671 -1.09027,0 -0.0919,0.046 -0.12615,0.17205 -0.21805,0.21805 -0.13867,0.0693 -0.90967,-0.0602 -1.09027,0 -0.0975,0.0325 -0.11726,0.19786 -0.21806,0.21806 -0.28509,0.057 -0.58147,0 -0.87221,0 -0.21805,0 -0.43611,0 -0.65416,0 -0.87222,0 -1.74443,0 -2.616648,0 -0.363423,0 -0.726846,0 -1.090269,0 -0.14537,0 -0.296332,-0.0399 -0.436108,0 -0.376358,0.10753 -0.740174,0.26106 -1.090269,0.43611 -0.783376,0.3917 0.780133,0.16071 -0.872216,0.4361 -0.487529,0.0813 -1.041779,-0.0969 -1.526376,0 -0.159372,0.0319 -0.275792,0.19136 -0.436108,0.21806 -0.286783,0.0478 -0.581477,0 -0.872215,0 -0.07268,0 -0.147544,-0.0176 -0.218054,0 -0.222986,0.0557 -0.431175,0.16235 -0.654162,0.21805 -0.145167,0.0363 -1.274183,0 -1.308323,0 -0.07268,0 -0.149103,-0.023 -0.218053,0 -0.711793,0.23727 -0.182782,0.28486 -1.09027,0.43611 -0.215087,0.0358 -0.440342,-0.0428 -0.654161,0 -0.159372,0.0319 -0.275791,0.19135 -0.436108,0.21805 -0.286782,0.0478 -0.581477,0 -0.872215,0 -0.07268,0 -0.147534,-0.0176 -0.218054,0 -0.222986,0.0557 -0.431175,0.16236 -0.654161,0.21806 -0.200847,0.0502 -0.458252,-0.0653 -0.654162,0 -0.154187,0.0514 -0.28192,0.16665 -0.436107,0.21805 -0.06896,0.023 -0.153044,-0.0325 -0.218054,0 -0.234401,0.1172 -0.410838,0.33881 -0.654162,0.43611 -0.134972,0.054 -0.295079,-0.0353 -0.436107,0 -0.157675,0.0394 -0.276737,0.18615 -0.436108,0.21805 -0.213819,0.0428 -0.438299,-0.0308 -0.654162,0 -0.296674,0.0424 -0.581476,0.14536 -0.872215,0.21806 -0.145369,0.0727 -0.275791,0.19135 -0.436108,0.21805 -0.286782,0.0478 -0.596396,-0.0919 -0.872215,0 -0.195033,0.065 -0.259821,0.33034 -0.436107,0.43611 -0.533599,0.32016 -0.992779,0.11595 -1.526377,0.43611 -0.176286,0.10577 -0.290739,0.29073 -0.436108,0.4361 -0.07268,0.0727 -0.120534,0.18556 -0.218054,0.21806 -0.137909,0.046 -0.290738,0 -0.436107,0 -0.07269,0 -0.153044,-0.0325 -0.218054,0 -0.09194,0.046 -0.126114,0.17205 -0.218054,0.21805 -0.06501,0.0325 -0.145374,0 -0.218054,0 -0.145369,0 -0.298198,-0.046 -0.436108,0 -0.195033,0.065 -0.252228,0.34421 -0.436107,0.43611 -0.06501,0.0325 -0.153044,-0.0325 -0.218054,0 -0.183879,0.0919 -0.252229,0.34421 -0.436108,0.43611 -0.06501,0.0325 -0.153044,-0.0325 -0.218054,0 -0.09194,0.046 -0.126113,0.17205 -0.218053,0.21805 -0.205583,0.10279 -0.448579,0.11526 -0.654162,0.21805 -0.261664,0.13084 -0.392497,0.52333 -0.654161,0.65416 -0.06501,0.0325 -0.153044,-0.0325 -0.218054,0 -0.09194,0.046 -0.126114,0.17206 -0.218054,0.21806 -0.06501,0.0325 -0.153044,-0.0325 -0.218054,0 -0.116459,0.0582 -0.539364,0.53936 -0.654161,0.65416 -0.363423,0.36342 -0.726846,0.72685 -1.090269,1.09027 -0.170319,0.17032 -0.466003,0.52872 -0.654162,0.65416 -0.135231,0.0902 -0.306085,0.12055 -0.436108,0.21805 -0.164466,0.12335 -0.265052,0.32208 -0.436107,0.43611 -0.06048,0.0403 -0.153044,-0.0325 -0.218054,0 -0.09194,0.046 -0.126114,0.17206 -0.218054,0.21806 -0.641691,0.32084 0.287086,-0.50514 -0.436108,0.21805 -0.07268,0.0727 -0.172083,0.12615 -0.218053,0.21805 -0.125604,0.25121 0.242448,0.64197 -0.218054,0.87222 -0.06501,0.0325 -0.153044,-0.0325 -0.218054,0 -0.173996,0.087 -0.750717,0.84181 -0.872215,0.87221 -0.211544,0.0529 -0.442619,-0.0529 -0.654162,0 -0.09972,0.0249 -0.132524,0.16106 -0.218054,0.21806 -0.270462,0.18031 -0.601752,0.2558 -0.872215,0.43611 -0.998935,0.66595 0.926856,-0.3544 -0.654161,0.4361 -0.188159,0.12544 -0.483843,0.48385 -0.654162,0.65417 -0.07268,0.0727 -0.126114,0.17205 -0.218054,0.21805 -0.205583,0.10279 -0.544351,-0.26236 -0.654161,0.21805 -0.171056,0.11404 -0.271641,0.31276 -0.436108,0.43611 -0.209654,0.15724 -0.444507,0.27887 -0.654161,0.43611 -0.164467,0.12335 -0.290739,0.29074 -0.436108,0.43611 -0.218054,0.21805 -0.436108,0.4361 -0.654162,0.65416 -0.07268,0.0727 -0.145373,0.14535 -0.218053,0.21805 -0.07268,0.0727 -0.122614,0.17985 -0.218054,0.21805 -0.278252,0.11131 -0.581477,0.14536 -0.872215,0.21806 -1.072464,0.43326 -0.37057,1.29365 -0.872209,1.9625 -0.09752,0.13003 -0.321183,0.10313 -0.436107,0.21806 -2.09e-4,2.1e-4 3.29e-4,0.65317 0,0.65416 -0.03251,0.0975 -0.172084,0.12611 -0.218054,0.21805 -0.0312,0.0624 0,0.97378 0,1.09027 0,0.72685 0,1.45369 0,2.18054 0,0.36342 0,0.72685 0,1.09027 0,0.0727 0,0.14537 0,0.21805 0,0.0727 0.03251,0.15305 0,0.21806 -0.128903,0.2578 -0.38671,0.3072 -0.654162,0.21805 -0.09752,-0.0325 -0.126114,-0.17208 -0.218054,-0.21805 -0.04887,-0.0244 -0.820399,0 -0.872215,0 -0.218054,0 -0.436108,0 -0.654162,0 -0.145369,0 -0.436107,0.14537 -0.436107,0 0,-0.14537 0.581477,0 0.436107,0 -0.218054,0 -0.442618,-0.0529 -0.654161,0 -0.06963,0.0174 -0.573976,0.57397 -0.654162,0.65416 -0.114797,0.1148 -0.595932,0.5377 -0.654161,0.65416 -0.06501,0.13002 0.06501,0.30609 0,0.43611 -0.04597,0.0919 -0.172084,0.12611 -0.218054,0.21805 -0.03251,0.065 0,0.14537 0,0.21806 0,0.14536 -0.06501,0.30608 0,0.4361 0.70995,1.4199 0.218532,-0.43467 0.654161,0.87222 0.127549,0.38264 -0.229058,0.20705 0.218054,0.65416 0.07268,0.0727 0.126114,0.17208 0.218054,0.21805 0.06501,0.0325 0.145369,0 0.218054,0 0.145369,0.0727 0.300876,0.1279 0.436108,0.21806 0.171055,0.11403 0.290738,0.29074 0.436107,0.43611 0.508795,0.50879 1.017586,1.01758 1.526377,1.52637 0.14537,0.14537 0.271641,0.31276 0.436108,0.43611 0.209654,0.15724 0.444507,0.27887 0.654162,0.43611 0.08223,0.0617 0.145369,0.14537 0.218053,0.21805 0.218054,0.21806 0.436108,0.43611 0.654162,0.65416 0.218054,0.21806 0.407462,0.46914 0.654162,0.65416 0.05815,0.0436 0.145369,0 0.218053,0 0.218054,0.14537 0.449521,0.2724 0.654162,0.43611 0.943146,0.94315 -0.05777,0.0342 0.872215,0.65416 0.08553,0.057 0.120538,0.18555 0.218054,0.21806 0.992643,0 0.01247,-0.10279 0.654162,0.21805 0.06501,0.0325 0.157576,-0.0403 0.218054,0 0.171055,0.11404 0.265052,0.32207 0.436107,0.43611 0.06048,0.0403 0.153043,-0.0325 0.218054,0 0.09194,0.046 0.145369,0.14537 0.218054,0.21805 0.145369,0.0727 0.285205,0.1577 0.436108,0.21806 0.213409,0.0854 0.431175,0.1623 0.654161,0.21805 0.07052,0.0176 0.157577,-0.0403 0.218054,0 0.171056,0.11404 0.265052,0.32207 0.436108,0.43611 0.06048,0.0403 0.149099,-0.023 0.218054,0 0.154187,0.0514 0.276736,0.18618 0.436107,0.21805 0.285093,0.057 0.581477,0 0.872216,0 0.654161,0 1.308323,0 1.962485,0 0.726846,0 1.453692,0 2.180538,0 0.363423,0 0.731791,0.0598 1.090269,0 0.226722,-0.0378 0.426623,-0.18555 0.654162,-0.21805 0.287816,-0.0411 0.583255,0.0321 0.872215,0 0.368354,-0.0409 0.722511,-0.17209 1.09027,-0.21806 0.21637,-0.027 0.440342,0.0428 0.654161,0 0.159372,-0.0319 0.276736,-0.18618 0.436108,-0.21805 0.213819,-0.0428 0.436108,0 0.654161,0 0.218054,0 0.436108,0 0.654162,0 0.218054,0 0.442618,0.0529 0.654162,0 0.09972,-0.0249 0.126114,-0.17208 0.218053,-0.21805 0.06501,-0.0325 0.14537,0 0.218054,0 0.14537,0 0.290739,0 0.436108,0 0.436108,0 0.872215,0 1.308323,0 0.799531,0 1.599062,0 2.398592,0 0.218054,0 0.440343,-0.0428 0.654162,0 0.159372,0.0319 0.276736,0.18618 0.436108,0.21805 0.908557,0.18171 0.363423,-0.12114 1.090269,0 2.609278,0.43488 0.0987,-0.0597 1.090269,0.43611 0.141653,0.0708 0.951954,-0.0692 1.09027,0 0.09194,0.046 0.120537,0.18555 0.218053,0.21805 0.94409,0.3147 -0.08014,-0.41685 0.872216,0.21806 0.08553,0.057 0.13582,0.15637 0.218054,0.21805 0.209654,0.15724 0.444507,0.27887 0.654161,0.43611 0.241706,0.18128 0.40304,0.48674 0.654162,0.65416 0.135231,0.0901 0.300876,0.1279 0.436108,0.21805 0.08553,0.057 0.145369,0.14537 0.218053,0.21806 0.363423,0.36342 0.726847,0.72684 1.09027,1.09027 0.07268,0.0727 0.120537,0.18554 0.218054,0.21805 0.137909,0.046 0.290738,0 0.436107,0 0.145369,0 0.290739,0 0.436108,0 0.116487,0 1.027862,0.0312 1.090269,0 0.09194,-0.046 0.126114,-0.17208 0.218054,-0.21805 0.0125,-0.006 1.018286,-0.036 1.090269,0 0.09194,0.046 0.126115,0.17208 0.218054,0.21805 0.06501,0.0325 0.153043,-0.0325 0.218054,0 0.09194,0.046 0.126114,0.17208 0.218054,0.21805 0.06501,0.0325 0.149099,-0.023 0.218054,0 0.154187,0.0514 0.28192,0.16666 0.436107,0.21806 0.149985,0.05 0.525506,-0.0643 0.654162,0 0.234401,0.1172 0.410837,0.33878 0.654162,0.4361 0.134972,0.054 0.290738,0 0.436107,0 0.864865,0 0.443458,0 1.308323,0 0.290739,0 0.581473,0 0.872213,0 0.36343,0 0.73179,0.0598 1.09027,0 2.63585,-0.4393 0.40911,-0.49065 3.27081,-0.87221 0.64842,-0.0865 1.30832,0 1.96248,0 0.29074,0 0.5964,0.0919 0.87222,0 0.19503,-0.065 0.26505,-0.32207 0.43611,-0.43611 0.10065,-0.0671 1.14289,0.0552 1.30832,0 0.0975,-0.0325 0.12612,-0.17208 0.21805,-0.21805 0.11531,-0.0577 0.76599,0.0266 0.87222,0 0.15768,-0.0394 0.28192,-0.16666 0.43611,-0.21806 0.069,-0.023 0.1491,0.023 0.21805,0 0.15419,-0.0514 0.28192,-0.16665 0.43611,-0.21805 0.12303,-0.041 0.51088,0 0.65416,0 0.58148,0 1.16295,0 1.74443,0 1.74443,0 3.48886,0 5.23329,0 0.43611,0 0.87222,0 1.30833,0 0.14537,0 0.30113,0.054 0.43611,0 0.24332,-0.0973 0.41976,-0.31891 0.65416,-0.43611 0.065,-0.0325 0.14635,0.012 0.21805,0 0.36558,-0.0609 0.72469,-0.15712 1.09027,-0.21805 0.0717,-0.012 0.1491,0.023 0.21805,0 0.15419,-0.0514 0.27844,-0.17864 0.43611,-0.21806 0.14103,-0.0353 0.29508,0.0353 0.43611,0 0.15767,-0.0394 0.27843,-0.17863 0.43611,-0.21805 0.14103,-0.0353 0.30608,0.065 0.4361,0 0.18388,-0.0919 0.25983,-0.33033 0.43611,-0.43611 0.15437,-0.66486 0.60417,-0.084 0.87222,-0.21805 0.0919,-0.046 0.12053,-0.18555 0.21805,-0.21805 0.11052,-0.0368 1.34812,0 1.52638,0 0.36342,0 0.72684,0 1.09027,0 0.14537,0 0.29508,-0.0353 0.43611,0 0.48852,0.12213 0.60855,0.57387 1.09026,0.65416 0.28679,0.0478 0.58544,-0.0478 0.87222,0 0.16032,0.0267 0.2852,0.15769 0.43611,0.21805 0.21341,0.0854 0.45707,0.0998 0.65416,0.21805 0.17629,0.10578 0.27164,0.31276 0.43611,0.43611 0.53718,0.40289 0.62535,0.0946 0.87221,0.21806 0.0919,0.046 0.12054,0.18554 0.21806,0.21805 0.12404,0.0414 0.88489,0 1.09027,0 0.0311,0 1.0527,0.025 1.09026,0 0.17106,-0.11404 0.26506,-0.32207 0.43611,-0.43611 0.0477,-0.0318 1.0125,0.0195 1.09027,0 0.15768,-0.0394 0.28192,-0.16666 0.43611,-0.21805 0.069,-0.023 0.14537,0 0.21805,0 0.36343,0 0.73179,0.0598 1.09027,0 0.22672,-0.0378 0.42878,-0.17298 0.65416,-0.21806 0.14255,-0.0285 0.29074,0 0.43611,0 0.36343,0 0.72685,0 1.09027,0 0.36342,0 0.72685,0 1.09027,0 0.14537,0 0.29074,0 0.43611,0 0.0727,0 0.15757,-0.0403 0.21805,0 0.17106,0.11404 0.27164,0.31276 0.43611,0.43611 0.13002,0.0975 0.30088,0.1279 0.43611,0.21806 0.17105,0.11403 0.29074,0.29073 0.43611,0.4361 0.14536,0.14537 0.29073,0.29074 0.4361,0.43611 0.0727,0.0727 0.13253,0.16104 0.21806,0.21806 0.13523,0.0901 0.30087,0.1279 0.4361,0.21805 0.0855,0.057 0.14537,0.14537 0.21806,0.21805 0.29074,0.14537 0.59348,0.26887 0.87221,0.43611 0.0882,0.0529 0.12054,0.18555 0.21806,0.21805 0.13791,0.046 0.29508,-0.0353 0.43611,0 0.15767,0.0394 0.28192,0.16666 0.4361,0.21806 0.069,0.023 0.14537,0 0.21806,0 0.21805,0 0.4361,0 0.65416,0 0.21805,0 0.4517,0.081 0.65416,0 0.24332,-0.0973 0.41976,-0.31891 0.65416,-0.43611 0.20558,-0.10279 0.44858,-0.11526 0.65416,-0.21805 0.0919,-0.046 0.13253,-0.16104 0.21806,-0.21806 0.13523,-0.0901 0.30608,-0.12053 0.4361,-0.21805 0.16447,-0.12335 0.26506,-0.32207 0.43611,-0.43611 0.12096,-0.0806 0.30609,0.065 0.43611,0 0.0919,-0.046 0.12054,-0.18555 0.21805,-0.21805 0.0997,-0.0333 0.77519,0.0485 0.87222,0 0.0919,-0.046 0.14537,-0.14537 0.21805,-0.21806 0.21806,0 0.44035,0.0428 0.65416,0 0.15938,-0.0319 0.2758,-0.19133 0.43611,-0.21805 0.57357,-0.0956 1.17087,0.0956 1.74443,0 0.32064,-0.0534 0.55687,-0.35727 0.87222,-0.43611 0.14103,-0.0353 0.29074,0 0.43611,0 0.36342,0 0.72684,0 1.09027,0 0.58147,0 1.16295,0 1.74443,0 0.21805,0 0.44261,-0.0529 0.65416,0 0.15767,0.0394 0.28192,0.16666 0.43611,0.21806 0.069,0.023 0.14909,-0.023 0.21805,0 0.15419,0.0514 0.27674,0.18618 0.43611,0.21805 1.24007,0 0.14356,-0.0975 1.09027,0.21805 0.12631,0.0421 0.68325,0 0.87221,0 0.9449,0 1.8898,0 2.8347,0 0.50879,0 1.01837,0.0282 1.52638,0 0.94623,-0.0526 1.88783,-0.1786 2.8347,-0.21805 1.45243,-0.0605 2.90738,0 4.36108,0 1.30832,0 2.61664,0 3.92497,0 0.50879,0 1.02746,0.0998 1.52637,0 0.25698,-0.0514 0.40218,-0.36411 0.65416,-0.43611 0.27956,-0.0799 0.58148,0 0.87222,0 0.43611,0 0.87222,0 1.30832,0 0.14537,0 0.29074,0 0.43611,0 0.14537,0 0.2982,0.046 0.43611,0 0.0975,-0.0325 0.12054,-0.18555 0.21805,-0.21805 0.13791,-0.046 0.29074,0 0.43611,0 0.49897,0 0.56222,0.046 1.09027,-0.21806 0.0919,-0.046 0.12054,-0.18554 0.21805,-0.21805 0.13791,-0.046 0.29074,0 0.43611,0 0.17826,0 1.41586,0.0368 1.52638,0 0.19503,-0.065 0.25223,-0.34417 0.43611,-0.43611 0.065,-0.0325 0.14536,0 0.21805,0 0.14537,0 0.29508,0.0353 0.43611,0 0.15767,-0.0394 0.28192,-0.16665 0.4361,-0.21805 0.28431,-0.0948 0.57835,-0.15928 0.87222,-0.21805 0.0713,-0.0143 0.15304,0.0325 0.21805,0 0.0919,-0.046 0.12054,-0.18555 0.21806,-0.21806 0.13791,-0.046 0.30608,0.065 0.43611,0 0.18387,-0.0919 0.29073,-0.29074 0.4361,-0.43611 0.0727,-0.0727 0.12054,-0.18554 0.21806,-0.21805 0.0459,-0.0153 0.97685,-0.0283 1.09027,0 0.22298,0.0557 0.43117,0.16231 0.65416,0.21805 0.1718,0.043 0.72997,0 0.87221,0 0.14537,0 0.29074,0 0.43611,0 0.0727,0 0.1491,0.023 0.21805,0 0.10019,-0.0334 0.59179,-0.24899 0.65417,-0.4361 0.046,-0.13791 -0.046,-0.2982 0,-0.43611 0.0325,-0.0975 0.17208,-0.12612 0.21805,-0.21806 0.0325,-0.065 -0.0325,-0.15304 0,-0.21805 0.046,-0.0919 0.17208,-0.12611 0.21805,-0.21805 0.1028,-0.20559 0.11527,-0.44858 0.21806,-0.65416 0.13083,-0.26167 0.52333,-0.3925 0.65416,-0.65417 0.0325,-0.065 -0.0325,-0.15304 0,-0.21805 0.046,-0.0919 0.17208,-0.12611 0.21805,-0.21805 0.0244,-0.0489 0,-0.8204 0,-0.87222 0,-0.36342 0,-0.72684 0,-1.09027 0,-0.0727 0,-0.14537 0,-0.21805 0,-0.0727 0.0325,-0.15305 0,-0.21806 -0.11721,-0.2344 -0.29075,-0.43612 -0.43613,-0.65418 z"
           id="path3594"
           inkscape:connector-curvature="0" />
        <path
           style="fill:none;fill-rule:evenodd;stroke:#000000;stroke-width:0.29055122;stroke-linecap:butt;stroke-linejoin:miter;stroke-miterlimit:4;stroke-dasharray:none;stroke-opacity:1"
           d="m 104.66584,919.13131 c -0.29074,0.0727 -0.61524,0.0639 -0.87222,0.21805 -0.13936,0.0836 -0.13742,0.29499 -0.21805,0.43611 -0.21028,0.36798 -0.46462,0.71119 -0.65416,1.09027 -0.0325,0.065 0.0403,0.15757 0,0.21805 -0.43157,0.64735 -0.50707,0.28901 -1.09027,0.87221 -0.11493,0.11493 -0.0911,0.33458 -0.21806,0.43611 -0.25382,0.20306 -0.58147,0.29074 -0.87221,0.43611 -0.64428,0.32214 -1.266448,0.6634 -1.962486,0.87222 -0.35499,0.10649 -0.748158,0.0755 -1.090269,0.21805 -2.31878,0.96616 -0.679663,0.93816 -3.270807,1.30832 -0.667355,0.0953 -1.53164,-0.17128 -2.180539,0.21806 -0.486786,0.29207 -0.80057,0.83639 -1.308323,1.09027 -0.395447,0.19772 -0.870643,0.15552 -1.308323,0.21805 -0.07195,0.0103 -0.166658,-0.0514 -0.218054,0 -0.18531,0.18531 -0.250797,0.46885 -0.436107,0.65416 -0.0514,0.0514 -0.153043,-0.0325 -0.218054,0 -0.09194,0.046 -0.145369,0.14537 -0.218054,0.21805 -0.07268,0.0727 -0.145369,0.14537 -0.218054,0.21806 -0.218054,0.21805 -0.469136,0.40746 -0.654161,0.65416 -0.09752,0.13002 -0.145369,0.29074 -0.218054,0.43611 -0.07268,0.14537 -0.145369,0.29074 -0.218054,0.43611 -0.07268,0.14536 -0.186179,0.27673 -0.218054,0.4361 -0.07127,0.35637 0,0.72685 0,1.09027 0,0.0727 0.01763,0.14754 0,0.21806 -0.05575,0.22298 -0.162307,0.43117 -0.218053,0.65416 -0.03526,0.14103 0.08064,0.31515 0,0.4361 -0.114037,0.17106 -0.322071,0.26506 -0.436108,0.43611 -0.04032,0.0605 0.03251,0.15305 0,0.21806 -0.08922,0.17843 -0.517209,0.47155 -0.654162,0.65416 -0.15724,0.20965 -0.250797,0.46885 -0.436107,0.65416 -0.0514,0.0514 -0.153043,-0.0325 -0.218054,0 -0.234401,0.1172 -0.419761,0.31891 -0.654162,0.43611 -0.06501,0.0325 -0.157576,-0.0403 -0.218053,0 -0.243807,0.16253 -0.634878,0.63488 -0.872216,0.87221"
           id="path3602"
           inkscape:connector-curvature="0" />
        <path
           inkscape:connector-curvature="0"
           id="path4440"
           d="m 122.76431,919.78547 c -0.29074,0.0727 -0.61524,0.0639 -0.87222,0.21805 -0.13936,0.0836 -0.13742,0.29499 -0.21805,0.43611 -0.21028,0.36798 -0.46462,0.71119 -0.65416,1.09027 -0.0325,0.065 0.0403,0.15757 0,0.21805 -0.43157,0.64735 -0.50707,0.28901 -1.09027,0.87221 -0.11493,0.11493 -0.0911,0.33458 -0.21806,0.43611 -0.25382,0.20306 -0.58147,0.29074 -0.87221,0.43611 -0.64428,0.32214 -1.26645,0.6634 -1.96249,0.87222 -0.35499,0.10649 -0.74815,0.0755 -1.09027,0.21805 -2.31878,0.96616 -0.67966,0.93816 -3.2708,1.30832 -0.66736,0.0953 -1.53164,-0.17128 -2.18054,0.21806 -0.48679,0.29207 -0.80057,0.83639 -1.30832,1.09027 -0.39545,0.19772 -0.87065,0.15552 -1.30833,0.21805 -0.072,0.0103 -0.16666,-0.0514 -0.21805,0 -0.18531,0.18531 -0.2508,0.46885 -0.43611,0.65416 -0.0514,0.0514 -0.15304,-0.0325 -0.21805,0 -0.0919,0.046 -0.14537,0.14537 -0.21806,0.21805 -0.0727,0.0727 -0.14537,0.14537 -0.21805,0.21806 -0.21805,0.21805 -0.46914,0.40746 -0.65416,0.65416 -0.0975,0.13002 -0.14537,0.29074 -0.21806,0.43611 -0.0727,0.14537 -0.14536,0.29074 -0.21805,0.43611 -0.0727,0.14536 -0.18618,0.27673 -0.21805,0.4361 -0.0713,0.35637 0,0.72685 0,1.09027 0,0.0727 0.0176,0.14754 0,0.21806 -0.0558,0.22298 -0.16231,0.43117 -0.21806,0.65416 -0.0353,0.14103 0.0806,0.31515 0,0.4361 -0.11403,0.17106 -0.32207,0.26506 -0.4361,0.43611 -0.0403,0.0605 0.0325,0.15305 0,0.21806 -0.0892,0.17843 -0.51721,0.47155 -0.65417,0.65416 -0.15724,0.20965 -0.25079,0.46885 -0.4361,0.65416 -0.0514,0.0514 -0.15305,-0.0325 -0.21806,0 -0.2344,0.1172 -0.41976,0.31891 -0.65416,0.43611 -0.065,0.0325 -0.15758,-0.0403 -0.21805,0 -0.24381,0.16253 -0.63488,0.63488 -0.87222,0.87221"
           style="fill:none;fill-rule:evenodd;stroke:#000000;stroke-width:0.29055122;stroke-linecap:butt;stroke-linejoin:miter;stroke-miterlimit:4;stroke-dasharray:none;stroke-opacity:1" />
        <path
           style="fill:none;fill-rule:evenodd;stroke:#000000;stroke-width:0.29055122;stroke-linecap:butt;stroke-linejoin:miter;stroke-miterlimit:4;stroke-dasharray:none;stroke-opacity:1"
           d="m 147.8405,919.13131 c -0.29074,0.0727 -0.61524,0.0639 -0.87222,0.21805 -0.13936,0.0836 -0.13742,0.29499 -0.21805,0.43611 -0.21028,0.36798 -0.46462,0.71119 -0.65416,1.09027 -0.0325,0.065 0.0403,0.15757 0,0.21805 -0.43157,0.64735 -0.50707,0.28901 -1.09027,0.87221 -0.11493,0.11493 -0.0911,0.33458 -0.21806,0.43611 -0.25382,0.20306 -0.58147,0.29074 -0.87221,0.43611 -0.64428,0.32214 -1.26645,0.6634 -1.96249,0.87222 -0.35499,0.10649 -0.74815,0.0755 -1.09027,0.21805 -2.31878,0.96616 -0.67966,0.93816 -3.2708,1.30832 -0.66736,0.0953 -1.53164,-0.17128 -2.18054,0.21806 -0.48679,0.29207 -0.80057,0.83639 -1.30832,1.09027 -0.39545,0.19772 -0.87065,0.15552 -1.30833,0.21805 -0.072,0.0103 -0.16666,-0.0514 -0.21805,0 -0.18531,0.18531 -0.2508,0.46885 -0.43611,0.65416 -0.0514,0.0514 -0.15304,-0.0325 -0.21805,0 -0.0919,0.046 -0.14537,0.14537 -0.21806,0.21805 -0.0727,0.0727 -0.14537,0.14537 -0.21805,0.21806 -0.21805,0.21805 -0.46914,0.40746 -0.65416,0.65416 -0.0975,0.13002 -0.14537,0.29074 -0.21806,0.43611 -0.0727,0.14537 -0.14536,0.29074 -0.21805,0.43611 -0.0727,0.14536 -0.18618,0.27673 -0.21805,0.4361 -0.0713,0.35637 0,0.72685 0,1.09027 0,0.0727 0.0176,0.14754 0,0.21806 -0.0558,0.22298 -0.16231,0.43117 -0.21806,0.65416 -0.0353,0.14103 0.0806,0.31515 0,0.4361 -0.11403,0.17106 -0.32207,0.26506 -0.4361,0.43611 -0.0403,0.0605 0.0325,0.15305 0,0.21806 -0.0892,0.17843 -0.51721,0.47155 -0.65417,0.65416 -0.15724,0.20965 -0.25079,0.46885 -0.4361,0.65416 -0.0514,0.0514 -0.15305,-0.0325 -0.21806,0 -0.2344,0.1172 -0.41976,0.31891 -0.65416,0.43611 -0.065,0.0325 -0.15758,-0.0403 -0.21805,0 -0.24381,0.16253 -0.63488,0.63488 -0.87222,0.87221"
           id="path4442"
           inkscape:connector-curvature="0"
           inkscape:transform-center-x="6.0717664"
           inkscape:transform-center-y="-0.19894943" />
        <path
           inkscape:transform-center-y="-0.19894943"
           inkscape:transform-center-x="6.0717664"
           inkscape:connector-curvature="0"
           id="path4444"
           d="m 172.91669,921.5299 c -0.29074,0.0727 -0.61524,0.0639 -0.87222,0.21805 -0.13936,0.0836 -0.13742,0.29499 -0.21805,0.43611 -0.21028,0.36798 -0.46462,0.71119 -0.65416,1.09027 -0.0325,0.065 0.0403,0.15757 0,0.21805 -0.43157,0.64735 -0.50707,0.28901 -1.09027,0.87221 -0.11493,0.11493 -0.0911,0.33458 -0.21806,0.43611 -0.25382,0.20306 -0.58147,0.29074 -0.87221,0.43611 -0.64428,0.32214 -1.26645,0.6634 -1.96249,0.87222 -0.35499,0.10649 -0.74815,0.0755 -1.09027,0.21805 -2.31878,0.96616 -0.67966,0.93816 -3.2708,1.30832 -0.66736,0.0953 -1.53164,-0.17128 -2.18054,0.21806 -0.48679,0.29207 -0.80057,0.83639 -1.30832,1.09027 -0.39545,0.19772 -0.87065,0.15552 -1.30833,0.21805 -0.072,0.0103 -0.16666,-0.0514 -0.21805,0 -0.18531,0.18531 -0.2508,0.46885 -0.43611,0.65416 -0.0514,0.0514 -0.15304,-0.0325 -0.21805,0 -0.0919,0.046 -0.14537,0.14537 -0.21806,0.21805 -0.0727,0.0727 -0.14537,0.14537 -0.21805,0.21806 -0.21805,0.21805 -0.46914,0.40746 -0.65416,0.65416 -0.0975,0.13002 -0.14537,0.29074 -0.21806,0.43611 -0.0727,0.14537 -0.14536,0.29074 -0.21805,0.43611 -0.0727,0.14536 -0.18618,0.27673 -0.21805,0.4361 -0.0713,0.35637 0,0.72685 0,1.09027 0,0.0727 0.0176,0.14754 0,0.21806 -0.0558,0.22298 -0.16231,0.43117 -0.21806,0.65416 -0.0353,0.14103 0.0806,0.31515 0,0.4361 -0.11403,0.17106 -0.32207,0.26506 -0.4361,0.43611 -0.0403,0.0605 0.0325,0.15305 0,0.21806 -0.0892,0.17843 -0.51721,0.47155 -0.65417,0.65416 -0.15724,0.20965 -0.25079,0.46885 -0.4361,0.65416 -0.0514,0.0514 -0.15305,-0.0325 -0.21806,0 -0.2344,0.1172 -0.41976,0.31891 -0.65416,0.43611 -0.065,0.0325 -0.15758,-0.0403 -0.21805,0 -0.24381,0.16253 -0.63488,0.63488 -0.87222,0.87221"
           style="fill:none;fill-rule:evenodd;stroke:#000000;stroke-width:0.29055122;stroke-linecap:butt;stroke-linejoin:miter;stroke-miterlimit:4;stroke-dasharray:none;stroke-opacity:1" />
      </g>
      <path
         d="m 79.81399,854.1906 c 0.635478,-0.0215 1.051343,0.62018 1.004204,1.2042 -0.0709,0.8784 -0.959599,1.42553 -1.789036,1.31084 -1.120496,-0.15492 -1.803111,-1.30021 -1.617493,-2.37387 0.23558,-1.36264 1.641336,-2.18234 2.958705,-1.92413 1.604917,0.31457 2.562511,1.98271 2.230782,3.54354 -0.392616,1.8473 -2.324259,2.94325 -4.128374,2.53742 -2.08977,-0.47008 -3.324372,-2.6659 -2.844071,-4.71321 0.547162,-2.3323 3.007627,-3.70575 5.298043,-3.15071 2.574881,0.62397 4.087331,3.3494 3.45736,5.88288 -0.700595,2.81749 -3.691217,4.46904 -6.467712,3.764 -1.016904,-0.25822 -1.949892,-0.80921 -2.672976,-1.56869"
         sodipodi:t0="0.149555"
         sodipodi:argument="-16.695436"
         sodipodi:radius="5.6861482"
         sodipodi:revolution="3.0443799"
         sodipodi:expansion="1"
         sodipodi:cy="855.00238"
         sodipodi:cx="79.560669"
         id="path6013"
         style="fill:none;fill-rule:evenodd;stroke:#000000;stroke-width:1px;stroke-linecap:butt;stroke-linejoin:miter;stroke-opacity:1"
         sodipodi:type="spiral" />
      <path
         d="m 123.77264,858.28035 c -1.05555,0.21532 -1.93147,-0.73923 -2.01762,-1.72819 -0.12957,-1.48746 1.20059,-2.65242 2.61862,-2.69503 1.91563,-0.0576 3.37938,1.66302 3.37244,3.50906 -0.009,2.34293 -2.12581,4.10924 -4.39949,4.04984 -2.76998,-0.0724 -4.84073,-2.58877 -4.72725,-5.28992 0.13431,-3.19694 3.05184,-5.57323 6.18036,-5.40466 3.62387,0.19526 6.30638,3.51498 6.08206,7.0708 -0.25555,4.0508 -3.97817,7.04 -7.96123,6.75947 -4.47775,-0.31538 -7.77396,-4.4414 -7.43688,-8.85167 0.37488,-4.90469 4.90466,-8.50817 9.74211,-8.11429 1.77173,0.14427 3.48595,0.8013 4.90836,1.86591"
         sodipodi:t0="0.149555"
         sodipodi:argument="-20.004461"
         sodipodi:radius="9.6339331"
         sodipodi:revolution="3.0443799"
         sodipodi:expansion="1"
         sodipodi:cy="856.85266"
         sodipodi:cx="123.96663"
         id="path6015"
         style="fill:none;fill-rule:evenodd;stroke:#000000;stroke-width:1px;stroke-linecap:butt;stroke-linejoin:miter;stroke-opacity:1"
         sodipodi:type="spiral" />
      <path
         d="m 159.93388,849.57024 c 0.24776,-0.42004 0.8342,-0.42491 1.19268,-0.15393 0.53918,0.40757 0.52728,1.2079 0.11154,1.69737 -0.56163,0.66124 -1.58377,0.63134 -2.20206,0.0691 -0.78471,-0.71352 -0.73627,-1.96065 -0.0267,-2.70675 0.86439,-0.90894 2.33808,-0.84168 3.21143,0.0157 1.03365,1.0147 0.94741,2.71586 -0.0581,3.71612 -1.16466,1.15864 -3.09385,1.05334 -4.22081,-0.10045 -1.28384,-1.3144 -1.15941,-3.472 0.14284,-4.72549 1.464,-1.40917 3.85028,-1.26559 5.23019,0.18523 1.53461,1.61347 1.37183,4.22863 -0.22764,5.73488 -0.58581,0.55167 -1.3265,0.92849 -2.11566,1.08365"
         sodipodi:t0="0.149555"
         sodipodi:argument="-17.699505"
         sodipodi:radius="4.3610764"
         sodipodi:revolution="3.0443799"
         sodipodi:expansion="1"
         sodipodi:cy="850.06842"
         sodipodi:cx="160.35484"
         id="path6017"
         style="fill:none;fill-rule:evenodd;stroke:#000000;stroke-width:1px;stroke-linecap:butt;stroke-linejoin:miter;stroke-opacity:1"
         sodipodi:type="spiral" />
    </g>
    <flowRoot
       xml:space="preserve"
       id="flowRoot6019"
       style="font-style:normal;font-variant:normal;font-weight:normal;font-stretch:normal;line-height:0.01%;font-family:'Latin Modern Mono';-inkscape-font-specification:'Latin Modern Mono, Normal';text-align:start;letter-spacing:0px;word-spacing:0px;writing-mode:lr-tb;text-anchor:start;fill:#000000;fill-opacity:1;stroke:none;stroke-width:1px;stroke-linecap:butt;stroke-linejoin:miter;stroke-opacity:1"
       transform="translate(0,680.31495)"><flowRegion
         id="flowRegion6021"><rect
           id="rect6023"
           width="227.58052"
           height="65.99218"
           x="235.59825"
           y="218.47665" /></flowRegion><flowPara
         id="flowPara6025"
         style="font-size:30px;line-height:1.25"> </flowPara></flowRoot>
    <flowRoot
       xml:space="preserve"
       id="flowRoot6027"
       style="font-style:normal;font-variant:normal;font-weight:normal;font-stretch:normal;line-height:0.01%;font-family:'Latin Modern Mono';-inkscape-font-specification:'Latin Modern Mono, Normal';text-align:start;letter-spacing:0px;word-spacing:0px;writing-mode:lr-tb;baseline-shift:sub;text-anchor:start;fill:#000000;fill-opacity:1;stroke:none;stroke-width:1px;stroke-linecap:butt;stroke-linejoin:miter;stroke-opacity:1"
       transform="translate(0,680.31495)"><flowRegion
         id="flowRegion6029"><rect
           id="rect6031"
           width="177.62381"
           height="72.159676"
           x="248.54999"
           y="222.17715"
           style="font-size:65.00000954%;baseline-shift:sub" /></flowRegion><flowPara
         id="flowPara6033"
         style="font-size:0.65px;line-height:1.25"> </flowPara></flowRoot>
    <flowRoot
       xml:space="preserve"
       id="flowRoot6043"
       style="font-style:normal;font-variant:normal;font-weight:normal;font-stretch:normal;line-height:0.01%;font-family:'Latin Modern Mono';-inkscape-font-specification:'Latin Modern Mono, Normal';text-align:start;letter-spacing:0px;word-spacing:0px;writing-mode:lr-tb;text-anchor:start;fill:#000000;fill-opacity:1;stroke:none;stroke-width:1px;stroke-linecap:butt;stroke-linejoin:miter;stroke-opacity:1"
       transform="translate(0,680.31495)"><flowRegion
         id="flowRegion6045"><rect
           id="rect6047"
           width="72.776428"
           height="33.921215"
           x="263.96872"
           y="233.89539" /></flowRegion><flowPara
         id="flowPara6049"
         style="font-size:30px;line-height:1.25"> </flowPara></flowRoot>
    <text
       xml:space="preserve"
       style="font-style:normal;font-variant:normal;font-weight:normal;font-stretch:normal;line-height:0%;font-family:'Latin Modern Mono';-inkscape-font-specification:'Latin Modern Mono, Normal';text-align:start;letter-spacing:0px;word-spacing:0px;writing-mode:lr-tb;text-anchor:start;fill:#000000;fill-opacity:1;stroke:none;stroke-width:1px;stroke-linecap:butt;stroke-linejoin:miter;stroke-opacity:1"
       x="20.060949"
       y="817.73627"
       id="text9271"><tspan
         sodipodi:role="line"
         id="tspan9273"
         x="20.060949"
         y="817.73627"
         style="font-size:22.5px;line-height:1.25">ScienceMind III</tspan></text>
    <path
       style="fill:none;fill-rule:evenodd;stroke:#000000;stroke-width:0.29055122;stroke-linecap:butt;stroke-linejoin:miter;stroke-miterlimit:4;stroke-dasharray:none;stroke-opacity:1"
       d="m 98.124224,859.1665 c -0.82361,3.90066 -3.67303,-0.78013 -5.233292,0 -1.04666,0.52333 -1.56999,2.09332 -2.61665,2.61664 -0.26004,0.13003 -0.61217,-0.13002 -0.87221,0 -0.46584,0.23292 -2.15746,2.15746 -2.61665,2.61665 -0.512988,0.51299 -3.286909,3.08496 -3.488861,3.48886 -0.114671,0.22934 0,3.03276 0,3.48886 0,0.58148 0,1.16296 0,1.74443 0,0.29074 0.290738,0.87222 0,0.87222 -0.290739,0 0,-1.16295 0,-0.87222 0,0.87222 0,1.74443 0,2.61665 0,0.29714 0.157349,3.01681 0,3.48886 -0.205583,0.61675 -0.666632,1.12768 -0.872215,1.74443 -0.510195,1.53059 0.916233,0.8282 -0.872216,2.61665"
       id="path9275"
       inkscape:connector-curvature="0" />
    <path
       inkscape:connector-curvature="0"
       id="path9277"
       d="m 156.56266,858.29428 c -0.82361,3.90066 -3.67303,-0.78013 -5.2333,0 -1.04666,0.52333 -1.56999,2.09332 -2.61665,2.61664 -0.26004,0.13003 -0.61217,-0.13002 -0.87221,0 -0.46584,0.23292 -2.15746,2.15746 -2.61665,2.61665 -0.51298,0.51299 -3.2869,3.08496 -3.48886,3.48886 -0.11467,0.22934 0,3.03276 0,3.48886 0,0.58148 0,1.16296 0,1.74443 0,0.29074 0.29074,0.87222 0,0.87222 -0.29074,0 0,-1.16295 0,-0.87222 0,0.87222 0,1.74443 0,2.61665 0,0.29714 0.15735,3.01681 0,3.48886 -0.20558,0.61675 -0.66663,1.12768 -0.87221,1.74443 -0.5102,1.53059 0.91623,0.8282 -0.87222,2.61665"
       style="fill:none;fill-rule:evenodd;stroke:#000000;stroke-width:0.29055122;stroke-linecap:butt;stroke-linejoin:miter;stroke-miterlimit:4;stroke-dasharray:none;stroke-opacity:1" />
    <path
       style="fill:none;fill-rule:evenodd;stroke:#000000;stroke-width:0.29055122;stroke-linecap:butt;stroke-linejoin:miter;stroke-miterlimit:4;stroke-dasharray:none;stroke-opacity:1"
       d="m 65.852257,845.21105 c -0.82361,3.90066 -3.67303,-0.78013 -5.2333,0 -1.04666,0.52333 -1.56999,2.09332 -2.61665,2.61664 -0.26004,0.13003 -0.61217,-0.13002 -0.87221,0 -0.46584,0.23292 -2.15746,2.15746 -2.61665,2.61665 -0.51298,0.51299 -3.2869,3.08496 -3.48886,3.48886 -0.11467,0.22934 0,3.03276 0,3.48886 0,0.58148 0,1.16296 0,1.74443 0,0.29074 0.29074,0.87222 0,0.87222 -0.29074,0 0,-1.16295 0,-0.87222 0,0.87222 0,1.74443 0,2.61665 0,0.29714 0.15735,3.01681 0,3.48886 -0.20558,0.61675 -0.66663,1.12768 -0.87221,1.74443 -0.5102,1.53059 0.91623,0.8282 -0.87222,2.61665"
       id="path9279"
       inkscape:connector-curvature="0" />
    <path
       inkscape:connector-curvature="0"
       id="path9281"
       d="m 49.280164,859.1665 c -0.82361,3.90066 -3.67303,-0.78013 -5.2333,0 -1.04666,0.52333 -1.56999,2.09332 -2.61665,2.61664 -0.26004,0.13003 -0.61217,-0.13002 -0.87221,0 -0.46584,0.23292 -2.15746,2.15746 -2.61665,2.61665 -0.51298,0.51299 -3.2869,3.08496 -3.48886,3.48886 -0.11467,0.22934 0,3.03276 0,3.48886 0,0.58148 0,1.16296 0,1.74443 0,0.29074 0.29074,0.87222 0,0.87222 -0.29074,0 0,-1.16295 0,-0.87222 0,0.87222 0,1.74443 0,2.61665 0,0.29714 0.15735,3.01681 0,3.48886 -0.20558,0.61675 -0.66663,1.12768 -0.87221,1.74443 -0.5102,1.53059 0.91623,0.8282 -0.87222,2.61665"
       style="fill:none;fill-rule:evenodd;stroke:#000000;stroke-width:0.29055122;stroke-linecap:butt;stroke-linejoin:miter;stroke-miterlimit:4;stroke-dasharray:none;stroke-opacity:1" />
    <path
       sodipodi:type="spiral"
       style="fill:none;fill-rule:evenodd;stroke:#000000;stroke-width:1px;stroke-linecap:butt;stroke-linejoin:miter;stroke-opacity:1"
       id="path9283"
       sodipodi:cx="88.09375"
       sodipodi:cy="845.64716"
       sodipodi:expansion="1"
       sodipodi:revolution="3.0443799"
       sodipodi:radius="8.0177422"
       sodipodi:argument="-18.737797"
       sodipodi:t0="0.149555"
       d="m 86.911757,845.84894 c -0.434054,-0.78449 0.105606,-1.71791 0.869412,-2.03279 1.148821,-0.47361 2.405362,0.29227 2.792606,1.40763 0.523132,1.50675 -0.478278,3.09785 -1.94585,3.55242 -1.862591,0.57692 -3.792731,-0.66386 -4.312231,-2.48407 -0.632894,-2.21753 0.849163,-4.48895 3.022287,-5.07205 2.571989,-0.69011 5.185997,1.03431 5.831857,3.56051 0.748122,2.92619 -1.219339,5.88359 -4.098726,6.59167 -3.280218,0.80665 -6.581556,-1.4043 -7.351481,-4.63695 -0.865549,-3.63413 1.589196,-7.27979 5.175163,-8.11129 3.987981,-0.92471 7.978247,1.77406 8.871107,5.71338 0.327014,1.4428 0.232524,2.96771 -0.258319,4.36251" />
    <path
       sodipodi:type="spiral"
       style="fill:none;fill-rule:evenodd;stroke:#000000;stroke-width:1px;stroke-linecap:butt;stroke-linejoin:miter;stroke-opacity:1"
       id="path9287"
       sodipodi:cx="45.791298"
       sodipodi:cy="864.83594"
       sodipodi:expansion="1"
       sodipodi:revolution="3.0443799"
       sodipodi:radius="13.526369"
       sodipodi:argument="-18.76586"
       sodipodi:t0="0.149555"
       d="m 43.807548,865.23218 c -0.76912,-1.30242 0.09677,-2.90207 1.369941,-3.46924 1.914941,-0.85306 4.070215,0.37902 4.776057,2.24162 0.953531,2.51621 -0.65992,5.24682 -3.113301,6.08287 -3.113745,1.0611 -6.42745,-0.93997 -7.389694,-3.98498 -1.172277,-3.70964 1.219527,-7.61032 4.856661,-8.69651 4.304708,-1.28555 8.794576,1.49876 10.003331,5.72834 1.400143,4.89928 -1.777769,9.97975 -6.60002,11.31015 -5.493544,1.51561 -11.165548,-2.05664 -12.616968,-7.4717 -1.631684,-6.0876 2.3354,-12.35181 8.343379,-13.92378 6.681519,-1.74821 13.538418,2.61408 15.230605,9.21505 0.619771,2.41764 0.532609,4.99371 -0.229117,7.36912" />
    <path
       sodipodi:type="spiral"
       style="fill:none;fill-rule:evenodd;stroke:#000000;stroke-width:1px;stroke-linecap:butt;stroke-linejoin:miter;stroke-opacity:1"
       id="path9289"
       sodipodi:cx="103.35751"
       sodipodi:cy="859.1665"
       sodipodi:expansion="1"
       sodipodi:revolution="3.0443799"
       sodipodi:radius="20.663404"
       sodipodi:argument="-18.328081"
       sodipodi:t0="0.149555"
       d="m 100.35624,858.43004 c -0.22068,-2.30008 2.0133,-3.95257 4.14213,-3.91277 3.20191,0.0599 5.38599,3.16031 5.15634,6.19447 -0.31024,4.09889 -4.31094,6.83201 -8.24682,6.39992 -4.995274,-0.5484 -8.284123,-5.46301 -7.643488,-10.29916 0.780469,-5.89176 6.615828,-9.73968 12.351498,-8.88707 6.78843,1.00911 11.19736,7.76909 10.13064,14.40385 -1.23561,7.68527 -8.92265,12.65643 -16.456186,11.37421 -8.582256,-1.46071 -14.116483,-10.07643 -12.617787,-18.50853 1.684832,-9.47935 11.230354,-15.57724 20.560873,-13.86136 10.37654,1.90824 17.03852,12.38439 15.10494,22.61322 -0.70819,3.74635 -2.49707,7.25409 -5.08931,10.04734" />
    <path
       sodipodi:type="spiral"
       style="fill:none;fill-rule:evenodd;stroke:#000000;stroke-width:1px;stroke-linecap:butt;stroke-linejoin:miter;stroke-opacity:1"
       id="path9291"
       sodipodi:cx="159.6154"
       sodipodi:cy="870.06915"
       sodipodi:expansion="1"
       sodipodi:revolution="3.0443799"
       sodipodi:radius="18.630527"
       sodipodi:argument="-20.340429"
       sodipodi:t0="0.149555"
       d="m 160.17147,872.79939 c -1.78987,1.06611 -3.99764,-0.11821 -4.78544,-1.86884 -1.18491,-2.63309 0.50088,-5.60804 3.06265,-6.5899 3.46072,-1.32642 7.23008,0.88166 8.39436,4.25645 1.47767,4.28317 -1.26126,8.85767 -5.45026,10.19883 -5.10335,1.6339 -10.48833,-1.64015 -12.00329,-6.64407 -1.79301,-5.92236 2.01859,-12.1209 7.83788,-13.80775 6.74069,-1.95394 13.75473,2.39672 15.61221,9.03168 2.11606,7.5586 -2.77466,15.38943 -10.22549,17.41668 -8.37621,2.27902 -17.02477,-3.15245 -19.22113,-11.4193 -2.4426,-9.19363 3.53012,-18.66058 12.6131,-21.0256 3.32668,-0.8662 6.87526,-0.75954 10.15095,0.27727" />
    <text
       xml:space="preserve"
       style="font-style:normal;font-variant:normal;font-weight:normal;font-stretch:normal;line-height:0%;font-family:'Latin Modern Mono';-inkscape-font-specification:'Latin Modern Mono, Normal';text-align:start;letter-spacing:0px;word-spacing:0px;writing-mode:lr-tb;text-anchor:start;fill:#000000;fill-opacity:1;stroke:none;stroke-width:1px;stroke-linecap:butt;stroke-linejoin:miter;stroke-opacity:1"
       x="126.47121"
       y="1022.7069"
       id="text9303"><tspan
         sodipodi:role="line"
         id="tspan9305"
         x="126.47121"
         y="1022.7069"
         style="font-size:30px;line-height:1.25">P(Z1,Z2)</tspan></text>
    <text
       xml:space="preserve"
       style="font-style:normal;font-variant:normal;font-weight:normal;font-stretch:normal;line-height:0%;font-family:'Latin Modern Mono';-inkscape-font-specification:'Latin Modern Mono, Normal';text-align:start;letter-spacing:0px;word-spacing:0px;writing-mode:lr-tb;text-anchor:start;fill:#000000;fill-opacity:1;stroke:none;stroke-width:1px;stroke-linecap:butt;stroke-linejoin:miter;stroke-opacity:1"
       x="264.28125"
       y="1020.9625"
       id="text9379"><tspan
         sodipodi:role="line"
         id="tspan9629"
         x="264.28125"
         y="1020.9625"
         style="font-size:30px;line-height:1.25">= P(Z2)P(Z1|Z2)</tspan></text>
    <text
       xml:space="preserve"
       style="font-style:normal;font-variant:normal;font-weight:normal;font-stretch:normal;line-height:0%;font-family:'Latin Modern Mono';-inkscape-font-specification:'Latin Modern Mono, Normal';text-align:start;letter-spacing:0px;word-spacing:0px;writing-mode:lr-tb;text-anchor:start;fill:#000000;fill-opacity:1;stroke:none;stroke-width:1px;stroke-linecap:butt;stroke-linejoin:miter;stroke-opacity:1"
       x="26.166456"
       y="714.81488"
       id="text9631"><tspan
         sodipodi:role="line"
         id="tspan9633"
         x="26.166456"
         y="714.81488"
         style="font-size:22.5px;line-height:1.25">Z1={observed system behavior}</tspan></text>
    <text
       id="text9635"
       y="741.85352"
       x="25.294243"
       style="font-style:normal;font-variant:normal;font-weight:normal;font-stretch:normal;line-height:0%;font-family:'Latin Modern Mono';-inkscape-font-specification:'Latin Modern Mono, Normal';text-align:start;letter-spacing:0px;word-spacing:0px;writing-mode:lr-tb;text-anchor:start;fill:#000000;fill-opacity:1;stroke:none;stroke-width:1px;stroke-linecap:butt;stroke-linejoin:miter;stroke-opacity:1"
       xml:space="preserve"><tspan
         sodipodi:role="line"
         id="tspan9639"
         x="25.294243"
         y="741.85352"
         style="font-size:22.5px;line-height:1.25">Z2={possible causally-linked data}</tspan></text>
    <ellipse
       style="opacity:1;fill:#deaa87;fill-opacity:1;stroke:#000000;stroke-width:1.7716537;stroke-miterlimit:4;stroke-dasharray:none;stroke-dashoffset:0;stroke-opacity:0.94078944"
       id="path9641"
       ry="32.271969"
       rx="36.196934"
       cy="800.29193"
       cx="364.1499" />
    <ellipse
       cx="365.02209"
       cy="931.99646"
       rx="36.196934"
       ry="32.271969"
       id="ellipse9643"
       style="opacity:1;fill:#00ffff;fill-opacity:1;stroke:#000000;stroke-width:1.77165353;stroke-miterlimit:4;stroke-dasharray:none;stroke-dashoffset:0;stroke-opacity:0.94078944" />
    <path
       style="fill:none;fill-rule:evenodd;stroke:#000000;stroke-width:2.99963355;stroke-linecap:butt;stroke-linejoin:miter;stroke-miterlimit:4;stroke-dasharray:none;stroke-opacity:1;marker-end:url(#marker4202)"
       d="m 364.70628,842.0417 c 0.15424,41.5688 0.15424,41.5688 0.15424,41.5688"
       id="path9645"
       inkscape:connector-curvature="0" />
    <text
       xml:space="preserve"
       style="font-style:normal;font-variant:normal;font-weight:normal;font-stretch:normal;line-height:0%;font-family:'Latin Modern Mono';-inkscape-font-specification:'Latin Modern Mono, Normal';text-align:start;letter-spacing:0px;word-spacing:0px;writing-mode:lr-tb;text-anchor:start;fill:#000000;fill-opacity:1;stroke:none;stroke-width:1px;stroke-linecap:butt;stroke-linejoin:miter;stroke-opacity:1"
       x="356.73608"
       y="938.10205"
       id="text11597"><tspan
         sodipodi:role="line"
         id="tspan11599"
         x="356.73608"
         y="938.10205"
         style="font-size:22.5px;line-height:1.25">Z1</tspan></text>
    <text
       id="text11601"
       y="805.52527"
       x="354.11942"
       style="font-style:normal;font-variant:normal;font-weight:normal;font-stretch:normal;line-height:0%;font-family:'Latin Modern Mono';-inkscape-font-specification:'Latin Modern Mono, Normal';text-align:start;letter-spacing:0px;word-spacing:0px;writing-mode:lr-tb;text-anchor:start;fill:#000000;fill-opacity:1;stroke:none;stroke-width:1px;stroke-linecap:butt;stroke-linejoin:miter;stroke-opacity:1"
       xml:space="preserve"><tspan
         sodipodi:role="line"
         id="tspan11605"
         x="354.11942"
         y="805.52527"
         style="font-size:22.5px;line-height:1.25">Z2</tspan></text>
    <g
       id="g11625"
       transform="translate(23.549816,-6.1055075)">
      <text
         id="text11607"
         y="873.55804"
         x="219.79826"
         style="font-style:normal;font-variant:normal;font-weight:normal;font-stretch:normal;line-height:0%;font-family:'Latin Modern Mono';-inkscape-font-specification:'Latin Modern Mono, Normal';text-align:start;letter-spacing:0px;word-spacing:0px;writing-mode:lr-tb;text-anchor:start;fill:#000000;fill-opacity:1;stroke:none;stroke-width:1px;stroke-linecap:butt;stroke-linejoin:miter;stroke-opacity:1"
         xml:space="preserve"><tspan
           y="873.55804"
           x="219.79826"
           id="tspan11609"
           sodipodi:role="line"
           style="font-size:22.5px;line-height:1.25">H</tspan></text>
      <text
         id="text11615"
         y="881.40802"
         x="233.75372"
         style="font-style:normal;font-variant:normal;font-weight:normal;font-stretch:normal;line-height:0%;font-family:'Latin Modern Mono';-inkscape-font-specification:'Latin Modern Mono, Normal';text-align:start;letter-spacing:0px;word-spacing:0px;writing-mode:lr-tb;text-anchor:start;fill:#000000;fill-opacity:1;stroke:none;stroke-width:1px;stroke-linecap:butt;stroke-linejoin:miter;stroke-opacity:1"
         xml:space="preserve"><tspan
           y="881.40802"
           x="233.75372"
           id="tspan11619"
           sodipodi:role="line"
           style="font-size:20px;line-height:1.25">0</tspan></text>
      <text
         id="text11621"
         y="873.55804"
         x="246.83694"
         style="font-style:normal;font-variant:normal;font-weight:normal;font-stretch:normal;line-height:0%;font-family:'Latin Modern Mono';-inkscape-font-specification:'Latin Modern Mono, Normal';text-align:start;letter-spacing:0px;word-spacing:0px;writing-mode:lr-tb;text-anchor:start;fill:#000000;fill-opacity:1;stroke:none;stroke-width:1px;stroke-linecap:butt;stroke-linejoin:miter;stroke-opacity:1"
         xml:space="preserve"><tspan
           y="873.55804"
           x="246.83694"
           id="tspan11623"
           sodipodi:role="line"
           style="font-size:22.5px;line-height:1.25">:</tspan></text>
    </g>
    <path
       style="fill:none;fill-rule:evenodd;stroke:#000000;stroke-width:1.27538478;stroke-linecap:butt;stroke-linejoin:miter;stroke-miterlimit:4;stroke-dasharray:1.27538478, 7.65230868;stroke-dashoffset:0;stroke-opacity:1"
       d="m 326.65546,769.88823 3.90452,0 c 0,0 -2.603,0 -131.45244,86.52147 119.73892,111.24194 119.73892,111.24194 119.73892,111.24194"
       id="path11633"
       inkscape:connector-curvature="0" />
    <path
       style="fill:none;fill-rule:evenodd;stroke:#000000;stroke-width:1px;stroke-linecap:butt;stroke-linejoin:miter;stroke-opacity:1"
       d="m 61.927287,897.98008 0.872215,124.72682 43.610768,-0.8722 0,0"
       id="path11635"
       inkscape:connector-curvature="0" />
    <path
       inkscape:connector-curvature="0"
       id="path11637"
       d="m 69.681919,898.82628 0.668459,117.82532 33.422942,-0.8239 0,0"
       style="fill:none;fill-rule:evenodd;stroke:#000000;stroke-width:0.85087323px;stroke-linecap:butt;stroke-linejoin:miter;stroke-opacity:1" />
    <path
       style="fill:#979e97;fill-rule:evenodd;stroke:#000000;stroke-width:1px;stroke-linecap:butt;stroke-linejoin:miter;stroke-opacity:1;fill-opacity:1"
       d="m 100.30476,1007.8792 0,20.061 16.57209,-10.4666 z"
       id="path11639"
       inkscape:connector-curvature="0" />
  </g>
</svg>
