<?xml version="1.0" encoding="UTF-8" standalone="no"?>
<!-- Created with Inkscape (http://www.inkscape.org/) -->

<svg
   xmlns:dc="http://purl.org/dc/elements/1.1/"
   xmlns:cc="http://creativecommons.org/ns#"
   xmlns:rdf="http://www.w3.org/1999/02/22-rdf-syntax-ns#"
   xmlns:svg="http://www.w3.org/2000/svg"
   xmlns="http://www.w3.org/2000/svg"
   xmlns:sodipodi="http://sodipodi.sourceforge.net/DTD/sodipodi-0.dtd"
   xmlns:inkscape="http://www.inkscape.org/namespaces/inkscape"
   width="148mm"
   height="105mm"
   viewBox="0 0 524.40946 372.04725"
   id="svg2"
   version="1.1"
   inkscape:version="0.91 r"
   sodipodi:docname="drawing1d.svg"
   inkscape:export-filename="/home/bmarron/Desktop/PSU/PhD_EES/2016SoE022_ESR655_Science-Communication/Works_InProgress/Preszy_Take2/drawing1d.png"
   inkscape:export-xdpi="500"
   inkscape:export-ydpi="500">
  <defs
     id="defs4">
    <marker
       inkscape:stockid="EmptyDiamondLend"
       orient="auto"
       refY="0.0"
       refX="0.0"
       id="EmptyDiamondLend"
       style="overflow:visible"
       inkscape:isstock="true">
      <path
         id="path7247"
         d="M 0,-7.0710768 L -7.0710894,0 L 0,7.0710589 L 7.0710462,0 L 0,-7.0710768 z "
         style="fill-rule:evenodd;fill:#ffffff;stroke:#000000;stroke-width:1pt;stroke-opacity:1"
         transform="scale(0.8) translate(-7,0)" />
    </marker>
    <marker
       inkscape:stockid="EmptyDiamondL"
       orient="auto"
       refY="0.0"
       refX="0.0"
       id="EmptyDiamondL"
       style="overflow:visible"
       inkscape:isstock="true">
      <path
         id="path7229"
         d="M 0,-7.0710768 L -7.0710894,0 L 0,7.0710589 L 7.0710462,0 L 0,-7.0710768 z "
         style="fill-rule:evenodd;fill:#ffffff;stroke:#000000;stroke-width:1pt;stroke-opacity:1"
         transform="scale(0.8)" />
    </marker>
    <marker
       inkscape:stockid="EmptyTriangleInL"
       orient="auto"
       refY="0.0"
       refX="0.0"
       id="marker8621"
       style="overflow:visible"
       inkscape:isstock="true">
      <path
         id="path8623"
         d="M 5.77,0.0 L -2.88,5.0 L -2.88,-5.0 L 5.77,0.0 z "
         style="fill-rule:evenodd;fill:#ffffff;stroke:#000000;stroke-width:1pt;stroke-opacity:1"
         transform="scale(-0.8) translate(-6,0)" />
    </marker>
    <marker
       inkscape:stockid="EmptyTriangleInL"
       orient="auto"
       refY="0.0"
       refX="0.0"
       id="EmptyTriangleInL"
       style="overflow:visible"
       inkscape:isstock="true">
      <path
         id="path7274"
         d="M 5.77,0.0 L -2.88,5.0 L -2.88,-5.0 L 5.77,0.0 z "
         style="fill-rule:evenodd;fill:#ffffff;stroke:#000000;stroke-width:1pt;stroke-opacity:1"
         transform="scale(-0.8) translate(-6,0)" />
    </marker>
    <marker
       inkscape:stockid="Arrow2Lend"
       orient="auto"
       refY="0.0"
       refX="0.0"
       id="Arrow2Lend"
       style="overflow:visible;"
       inkscape:isstock="true">
      <path
         id="path7144"
         style="fill-rule:evenodd;stroke-width:0.625;stroke-linejoin:round;stroke:#000000;stroke-opacity:1;fill:#000000;fill-opacity:1"
         d="M 8.7185878,4.0337352 L -2.2072895,0.016013256 L 8.7185884,-4.0017078 C 6.9730900,-1.6296469 6.9831476,1.6157441 8.7185878,4.0337352 z "
         transform="scale(1.1) rotate(180) translate(1,0)" />
    </marker>
    <marker
       inkscape:stockid="Tail"
       orient="auto"
       refY="0.0"
       refX="0.0"
       id="Tail"
       style="overflow:visible"
       inkscape:isstock="true">
      <g
         id="g7159"
         transform="scale(-1.2)"
         style="stroke:#000000;stroke-opacity:1;fill:#000000;fill-opacity:1">
        <path
           id="path7161"
           d="M -3.8048674,-3.9585227 L 0.54352094,0"
           style="fill:#000000;fill-rule:evenodd;stroke:#000000;stroke-width:0.8;stroke-linecap:round;stroke-opacity:1;fill-opacity:1" />
        <path
           id="path7163"
           d="M -1.2866832,-3.9585227 L 3.0617053,0"
           style="fill:#000000;fill-rule:evenodd;stroke:#000000;stroke-width:0.8;stroke-linecap:round;stroke-opacity:1;fill-opacity:1" />
        <path
           id="path7165"
           d="M 1.3053582,-3.9585227 L 5.6537466,0"
           style="fill:#000000;fill-rule:evenodd;stroke:#000000;stroke-width:0.8;stroke-linecap:round;stroke-opacity:1;fill-opacity:1" />
        <path
           id="path7167"
           d="M -3.8048674,4.1775838 L 0.54352094,0.21974226"
           style="fill:#000000;fill-rule:evenodd;stroke:#000000;stroke-width:0.8;stroke-linecap:round;stroke-opacity:1;fill-opacity:1" />
        <path
           id="path7169"
           d="M -1.2866832,4.1775838 L 3.0617053,0.21974226"
           style="fill:#000000;fill-rule:evenodd;stroke:#000000;stroke-width:0.8;stroke-linecap:round;stroke-opacity:1;fill-opacity:1" />
        <path
           id="path7171"
           d="M 1.3053582,4.1775838 L 5.6537466,0.21974226"
           style="fill:#000000;fill-rule:evenodd;stroke:#000000;stroke-width:0.8;stroke-linecap:round;stroke-opacity:1;fill-opacity:1" />
      </g>
    </marker>
    <marker
       inkscape:stockid="Arrow1Mend"
       orient="auto"
       refY="0.0"
       refX="0.0"
       id="Arrow1Mend"
       style="overflow:visible;"
       inkscape:isstock="true">
      <path
         id="path4513"
         d="M 0.0,0.0 L 5.0,-5.0 L -12.5,0.0 L 5.0,5.0 L 0.0,0.0 z "
         style="fill-rule:evenodd;stroke:#000000;stroke-width:1.0pt;"
         transform="scale(0.4) rotate(180) translate(10,0)" />
    </marker>
    <marker
       inkscape:stockid="Arrow2Mend"
       orient="auto"
       refY="0.0"
       refX="0.0"
       id="Arrow2Mend"
       style="overflow:visible;"
       inkscape:isstock="true">
      <path
         id="path4531"
         style="fill-rule:evenodd;stroke-width:0.62500000;stroke-linejoin:round;"
         d="M 8.7185878,4.0337352 L -2.2072895,0.016013256 L 8.7185884,-4.0017078 C 6.9730900,-1.6296469 6.9831476,1.6157441 8.7185878,4.0337352 z "
         transform="scale(0.6) rotate(180) translate(0,0)" />
    </marker>
    <marker
       inkscape:stockid="Arrow1Lend"
       orient="auto"
       refY="0.0"
       refX="0.0"
       id="marker4346"
       style="overflow:visible;"
       inkscape:isstock="true">
      <path
         id="path4348"
         d="M 0.0,0.0 L 5.0,-5.0 L -12.5,0.0 L 5.0,5.0 L 0.0,0.0 z "
         style="fill-rule:evenodd;stroke:#000000;stroke-width:1pt;stroke-opacity:1;fill:#000000;fill-opacity:1"
         transform="scale(0.8) rotate(180) translate(12.5,0)" />
    </marker>
    <marker
       inkscape:isstock="true"
       style="overflow:visible;"
       id="marker4262"
       refX="0.0"
       refY="0.0"
       orient="auto"
       inkscape:stockid="Arrow1Mend">
      <path
         transform="scale(0.4) rotate(180) translate(10,0)"
         style="fill-rule:evenodd;stroke:#000000;stroke-width:1pt;stroke-opacity:1;fill:#000000;fill-opacity:1"
         d="M 0.0,0.0 L 5.0,-5.0 L -12.5,0.0 L 5.0,5.0 L 0.0,0.0 z "
         id="path4264" />
    </marker>
    <marker
       inkscape:isstock="true"
       style="overflow:visible;"
       id="marker4202"
       refX="0.0"
       refY="0.0"
       orient="auto"
       inkscape:stockid="Arrow2Mend">
      <path
         transform="scale(0.6) rotate(180) translate(0,0)"
         d="M 8.7185878,4.0337352 L -2.2072895,0.016013256 L 8.7185884,-4.0017078 C 6.9730900,-1.6296469 6.9831476,1.6157441 8.7185878,4.0337352 z "
         style="fill-rule:evenodd;stroke-width:0.625;stroke-linejoin:round;stroke:#000000;stroke-opacity:1;fill:#000000;fill-opacity:1"
         id="path4204" />
    </marker>
    <filter
       style="color-interpolation-filters:sRGB"
       id="filter4499"
       inkscape:label="filter1">
      <feBlend
         mode="normal"
         id="feBlend4501"
         in2="SourceGraphic" />
    </filter>
    <filter
       style="color-interpolation-filters:sRGB"
       id="filter4503"
       inkscape:label="filter2">
      <feMorphology
         id="feMorphology4505"
         operator="dilate"
         radius="26.899999999999999" />
      <feMorphology
         id="feMorphology4507"
         operator="dilate"
         radius="24.800000000000001" />
    </filter>
    <marker
       inkscape:stockid="Arrow1Lend"
       orient="auto"
       refY="0"
       refX="0"
       id="marker4346-3"
       style="overflow:visible"
       inkscape:isstock="true">
      <path
         inkscape:connector-curvature="0"
         id="path4348-6"
         d="M 0,0 5,-5 -12.5,0 5,5 0,0 Z"
         style="fill:#000000;fill-opacity:1;fill-rule:evenodd;stroke:#000000;stroke-width:1pt;stroke-opacity:1"
         transform="matrix(-0.8,0,0,-0.8,-10,0)" />
    </marker>
  </defs>
  <sodipodi:namedview
     id="base"
     pagecolor="#ffffff"
     bordercolor="#666666"
     borderopacity="1.0"
     inkscape:pageopacity="1"
     inkscape:pageshadow="2"
     inkscape:zoom="1.1465059"
     inkscape:cx="249.55929"
     inkscape:cy="221.74361"
     inkscape:document-units="mm"
     inkscape:current-layer="layer1"
     showgrid="false"
     inkscape:window-width="1600"
     inkscape:window-height="1151"
     inkscape:window-x="0"
     inkscape:window-y="25"
     inkscape:window-maximized="1"
     inkscape:snap-text-baseline="true" />
  <metadata
     id="metadata7">
    <rdf:RDF>
      <cc:Work
         rdf:about="">
        <dc:format>image/svg+xml</dc:format>
        <dc:type
           rdf:resource="http://purl.org/dc/dcmitype/StillImage" />
        <dc:title></dc:title>
      </cc:Work>
    </rdf:RDF>
  </metadata>
  <g
     inkscape:label="Layer 1"
     inkscape:groupmode="layer"
     id="layer1"
     transform="translate(0,-680.31497)">
    <text
       xml:space="preserve"
       style="font-style:normal;font-weight:normal;font-size:15.00000149px;line-height:125%;font-family:'Latin Modern Mono';letter-spacing:0px;word-spacing:0px;fill:#000000;fill-opacity:1;stroke:none;stroke-width:1px;stroke-linecap:butt;stroke-linejoin:miter;stroke-opacity:1;-inkscape-font-specification:'Latin Modern Mono, Normal';font-stretch:normal;font-variant:normal;text-anchor:start;text-align:start;writing-mode:lr;"
       x="130.71429"
       y="971.64789"
       id="text4477"
       sodipodi:linespacing="125%"><tspan
         sodipodi:role="line"
         id="tspan4481" /></text>
    <g
       id="g3537"
       transform="translate(-62.247859,4.5195406)">
      <g
         transform="translate(-1.7444308,2.6166461)"
         id="g3534">
        <path
           style="fill:none;fill-rule:evenodd;stroke:#000000;stroke-width:1px;stroke-linecap:butt;stroke-linejoin:miter;stroke-opacity:1"
           d="m 375.47379,711.86347 c -29.82702,31.83702 -38.00847,29.65957 -41.42857,20 -28.90828,14.97539 3.29954,24.1302 10,35.71429 -1.87638,39.22232 -26.66667,14.28571 -40,21.42857 25.3626,8.98387 35.85315,23.4759 10,51.42857 15.78859,-11.71223 30.99669,-28.64889 48.57143,-24.28571 16.44201,0.25586 28.18811,-26.48979 51.42857,12.85714 32.63057,25.51762 43.52563,20.14795 40,-5.71429 -48.6913,-38.10268 -17.92919,-34.14178 -5.71428,-40 22.68741,1.13791 28.25605,-5.42763 12.85714,-21.42857 -34.44863,-17.61905 -23.75026,-35.23809 -15.71429,-52.85714 -18.43773,18.89049 -44.26287,56.98822 -35.71428,5.71428 -11.42857,-27.22935 -22.85715,-36.34686 -34.28572,-2.85714 z"
           id="path4164"
           inkscape:connector-curvature="0"
           sodipodi:nodetypes="ccccccccccccc" />
      </g>
      <text
         transform="scale(0.9558844,1.0461516)"
         sodipodi:linespacing="125%"
         id="text4483"
         y="724.26147"
         x="374.00516"
         style="font-style:normal;font-variant:normal;font-weight:normal;font-stretch:normal;font-size:15.48914814px;line-height:125%;font-family:'Latin Modern Mono';-inkscape-font-specification:'Latin Modern Mono, Normal';text-align:start;letter-spacing:0px;word-spacing:0px;writing-mode:lr-tb;text-anchor:start;fill:#000000;fill-opacity:1;stroke:none;stroke-width:1px;stroke-linecap:butt;stroke-linejoin:miter;stroke-opacity:1"
         xml:space="preserve"><tspan
           y="724.26147"
           x="374.00516"
           id="tspan4485"
           sodipodi:role="line">A System</tspan></text>
      <text
         transform="scale(0.91499379,1.0929036)"
         sodipodi:linespacing="125%"
         id="text4495"
         y="724.82245"
         x="393.28873"
         style="font-style:normal;font-variant:normal;font-weight:normal;font-stretch:normal;font-size:32.78229904px;line-height:125%;font-family:'Latin Modern Mono';-inkscape-font-specification:'Latin Modern Mono, Normal';text-align:start;letter-spacing:0px;word-spacing:0px;writing-mode:lr-tb;text-anchor:start;fill:#000000;fill-opacity:1;stroke:none;stroke-width:1px;stroke-linecap:butt;stroke-linejoin:miter;stroke-opacity:1"
         xml:space="preserve"><tspan
           y="724.82245"
           x="393.28873"
           id="tspan4497"
           sodipodi:role="line">f(Z)</tspan></text>
    </g>
    <path
       style="fill:none;fill-rule:evenodd;stroke:#000000;stroke-width:0.03618691px;stroke-linecap:butt;stroke-linejoin:miter;stroke-opacity:1"
       d="m 441.46611,712.32141 0.003,49.69267"
       id="path4511"
       inkscape:connector-curvature="0" />
    <path
       style="fill:none;fill-rule:evenodd;stroke:#000000;stroke-width:1.4047817;stroke-linecap:butt;stroke-linejoin:miter;stroke-miterlimit:4;stroke-dasharray:none;stroke-opacity:1;marker-end:url(#marker4262)"
       d="m 321.64337,822.42388 -0.9467,60.45861"
       id="path4254"
       inkscape:connector-curvature="0"
       sodipodi:nodetypes="cc" />
    <text
       xml:space="preserve"
       style="font-style:normal;font-weight:normal;font-size:40px;line-height:125%;font-family:sans-serif;letter-spacing:0px;word-spacing:0px;fill:#000000;fill-opacity:1;stroke:none;stroke-width:1px;stroke-linecap:butt;stroke-linejoin:miter;stroke-opacity:1"
       x="421.1499"
       y="791.28888"
       id="text3468"
       sodipodi:linespacing="125%"><tspan
         sodipodi:role="line"
         id="tspan3470"
         x="421.1499"
         y="791.28888" /></text>
    <flowRoot
       xml:space="preserve"
       id="flowRoot3493"
       style="font-style:normal;font-variant:normal;font-weight:normal;font-stretch:normal;font-size:30px;line-height:125%;font-family:'Latin Modern Mono';-inkscape-font-specification:'Latin Modern Mono, Normal';text-align:start;letter-spacing:0px;word-spacing:0px;writing-mode:lr-tb;text-anchor:start;fill:#000000;fill-opacity:1;stroke:none;stroke-width:1px;stroke-linecap:butt;stroke-linejoin:miter;stroke-opacity:1"
       transform="translate(0,680.31495)"><flowRegion
         id="flowRegion3495"><rect
           id="rect3497"
           width="81.988235"
           height="35.760826"
           x="423.89664"
           y="249.06488" /></flowRegion><flowPara
         id="flowPara3499" /></flowRoot>    <flowRoot
       xml:space="preserve"
       id="flowRoot3501"
       style="font-style:normal;font-variant:normal;font-weight:normal;font-stretch:normal;font-size:30px;line-height:125%;font-family:'Latin Modern Mono';-inkscape-font-specification:'Latin Modern Mono, Normal';text-align:start;letter-spacing:0px;word-spacing:0px;writing-mode:lr-tb;text-anchor:start;fill:#000000;fill-opacity:1;stroke:none;stroke-width:1px;stroke-linecap:butt;stroke-linejoin:miter;stroke-opacity:1"
       transform="translate(-82.414638,638.68904)"><flowRegion
         id="flowRegion3503"><rect
           id="rect3505"
           width="33.144222"
           height="45.355232"
           x="412.55783"
           y="197.60419" /></flowRegion><flowPara
         id="flowPara3507">?</flowPara></flowRoot>    <flowRoot
       xml:space="preserve"
       id="flowRoot3564"
       style="font-style:normal;font-variant:normal;font-weight:normal;font-stretch:normal;font-size:22.50000191px;line-height:125%;font-family:'Latin Modern Mono';-inkscape-font-specification:'Latin Modern Mono, Normal';text-align:start;letter-spacing:0px;word-spacing:0px;writing-mode:lr-tb;text-anchor:start;fill:#000000;fill-opacity:1;stroke:none;stroke-width:1px;stroke-linecap:butt;stroke-linejoin:miter;stroke-opacity:1"
       transform="translate(-18.925753,620.64743)"><flowRegion
         id="flowRegion3566"><rect
           id="rect3568"
           width="166.59314"
           height="34.888626"
           x="40.994118"
           y="178.41545"
           style="font-style:normal;font-variant:normal;font-weight:normal;font-stretch:normal;font-size:22.50000191px;line-height:125%;font-family:'Latin Modern Mono';-inkscape-font-specification:'Latin Modern Mono, Normal';text-align:start;writing-mode:lr-tb;text-anchor:start" /></flowRegion><flowPara
         id="flowPara3572">ScienceMind II</flowPara></flowRoot>    <g
       id="g6004">
      <g
         transform="translate(-6.1674943,17.885733)"
         id="g5996">
        <g
           id="g4446"
           transform="matrix(1.1059616,0,0,1.198398,-32.176525,-274.41833)">
          <path
             inkscape:connector-curvature="0"
             id="path3594"
             d="m 197.77482,945.73387 c -0.0727,-0.14537 -0.14535,-0.29074 -0.21805,-0.43611 0,-0.14536 0.046,-0.29819 0,-0.4361 -0.065,-0.19504 -0.34421,-0.25223 -0.43611,-0.43611 -0.10279,-0.20558 -0.16235,-0.43118 -0.21805,-0.65416 -0.0176,-0.0705 0.0325,-0.15306 0,-0.21806 -0.046,-0.0919 -0.17206,-0.12615 -0.21806,-0.21805 -0.0325,-0.065 0,-0.14535 0,-0.21805 0,-0.14537 0.046,-0.2982 0,-0.43611 -0.0325,-0.0975 -0.17205,-0.12616 -0.21805,-0.21806 -0.065,-0.13002 0.046,-0.29819 0,-0.4361 -0.24854,-0.74563 -0.18086,-0.16227 -0.65416,-0.87222 -0.0403,-0.0605 0.0325,-0.15305 0,-0.21805 -0.24107,-0.48213 -0.13534,-0.0677 -0.43611,-0.21806 -0.0919,-0.046 -0.14535,-0.14535 -0.21805,-0.21805 -0.29074,-0.29074 -0.58148,-0.58148 -0.87222,-0.87221 -0.21805,-0.21806 -0.43611,-0.43611 -0.65416,-0.65417 -0.0727,-0.0727 -0.18555,-0.12055 -0.21805,-0.21805 -0.046,-0.13791 0,-0.29074 0,-0.43611 -0.0727,-0.0727 -0.17206,-0.12615 -0.21806,-0.21805 -0.0485,-0.097 0.0332,-0.77252 0,-0.87222 -0.065,-0.19503 -0.34421,-0.25223 -0.43611,-0.4361 -0.10279,-0.20559 -0.14535,-0.43611 -0.21805,-0.65417 0,-0.0727 0.023,-0.14905 0,-0.21805 -0.0514,-0.15419 -0.17865,-0.27843 -0.21805,-0.43611 -0.048,-0.19215 0.0645,-1.17932 0,-1.30832 -0.0966,-0.19327 -0.52183,-0.45566 -0.65417,-0.65416 -0.1803,-0.27046 -0.25579,-0.60175 -0.4361,-0.87222 -0.12544,-0.18816 -0.48385,-0.48384 -0.65416,-0.65416 -0.0727,-0.0727 -0.17206,-0.12615 -0.21806,-0.21805 -0.0325,-0.065 0.0325,-0.15306 0,-0.21806 -0.046,-0.0919 -0.17205,-0.12615 -0.21805,-0.21805 -0.0325,-0.065 0.0325,-0.15305 0,-0.21805 -0.044,-0.0881 -0.86522,-0.86522 -0.87222,-0.87222 -0.5,-0.49996 0.0919,0.13791 -0.4361,-0.65416 -0.16774,-0.2516 -0.48643,-0.40256 -0.65417,-0.65416 -0.0403,-0.0605 0.0325,-0.15306 0,-0.21806 -0.0919,-0.18388 -0.3442,-0.25222 -0.4361,-0.4361 -0.0325,-0.065 0.0325,-0.15306 0,-0.21806 -0.046,-0.0919 -0.17206,-0.12615 -0.21806,-0.21805 -0.0325,-0.065 0.0403,-0.15756 0,-0.21806 -0.11403,-0.17105 -0.29074,-0.29073 -0.43611,-0.4361 0,-0.0727 0.0325,-0.15306 0,-0.21806 -0.046,-0.0919 -0.18555,-0.12055 -0.21805,-0.21805 -0.046,-0.13791 0.046,-0.2982 0,-0.43611 -0.0325,-0.0975 -0.14535,-0.14535 -0.21805,-0.21805 -0.21806,-0.21806 -0.40747,-0.46914 -0.65416,-0.65416 -0.13003,-0.0975 -0.30088,-0.12786 -0.43611,-0.21806 -0.32086,-0.2139 -0.55136,-0.65831 -0.87222,-0.87221 -0.13523,-0.0902 -0.30087,-0.12786 -0.43611,-0.21806 -0.17105,-0.11403 -0.29073,-0.29074 -0.4361,-0.4361 -0.21806,-0.21806 -0.43611,-0.43611 -0.65416,-0.65417 -0.0727,-0.0727 -0.12056,-0.18555 -0.21806,-0.21805 -0.13791,-0.046 -0.2982,0.046 -0.43611,0 -0.0975,-0.0325 -0.14535,-0.14535 -0.21805,-0.21805 -0.0727,-0.0727 -0.14535,-0.14536 -0.21805,-0.21806 -0.21806,-0.21805 -0.43611,-0.43611 -0.65417,-0.65416 -0.36342,-0.36342 -0.72684,-0.72684 -1.09026,-1.09027 -0.1148,-0.1148 -0.53771,-0.59596 -0.65417,-0.65416 -0.065,-0.0325 -0.15305,0.0325 -0.21805,0 -0.0919,-0.046 -0.13255,-0.16105 -0.21805,-0.21805 -0.13523,-0.0902 -0.30088,-0.12786 -0.43611,-0.21806 -0.32708,-0.21805 -0.21805,-0.4361 -0.65416,-0.65416 -0.13002,-0.065 -0.2982,0.046 -0.43611,0 -0.0975,-0.0325 -0.12615,-0.17205 -0.21805,-0.21805 -0.20559,-0.10279 -0.54436,0.26235 -0.65417,-0.21806 -0.0855,-0.057 -0.13585,-0.15635 -0.21805,-0.21805 -0.20965,-0.15724 -0.44451,-0.27887 -0.65416,-0.43611 -0.39918,-0.29938 -0.0214,-0.2252 -0.65416,-0.43611 -0.069,-0.023 -0.14906,0.023 -0.21806,0 -0.15418,-0.0514 -0.28192,-0.16665 -0.4361,-0.21805 -0.18319,-0.0611 -1.00287,0.0583 -1.09027,0 -0.17106,-0.11404 -0.24523,-0.35971 -0.43611,-0.43611 -0.0555,-0.0222 -1.95059,0 -1.96249,0 -0.29073,0 -0.58147,0 -0.87221,0 -0.14537,0 -0.29508,0.0353 -0.43611,0 -0.15767,-0.0394 -0.28192,-0.16665 -0.43611,-0.21805 -0.069,-0.023 -0.14905,0.023 -0.21805,0 -0.15419,-0.0514 -0.27843,-0.17865 -0.43611,-0.21805 -0.21154,-0.0529 -0.44729,0.069 -0.65416,0 -0.15419,-0.0514 -0.28192,-0.16666 -0.43611,-0.21806 -0.069,-0.023 -0.15305,0.0325 -0.21805,0 -0.1785,-0.0892 -0.37036,-0.55745 -0.65416,-0.43611 -0.21341,-0.0854 -0.44075,-0.13265 -0.65416,-0.21805 -0.15091,-0.0604 -0.28192,-0.16665 -0.43611,-0.21805 -0.13791,-0.046 -0.2982,0.046 -0.43611,0 -0.15419,-0.0514 -0.29074,-0.14536 -0.43611,-0.21806 -0.29073,-0.14537 -0.5704,-0.31538 -0.87221,-0.43611 -0.14987,-0.0599 -0.88377,0.0413 -1.09027,0 -0.22539,-0.0451 -0.42744,-0.18025 -0.65416,-0.21805 -0.25976,-0.0433 -1.2554,0 -1.52638,0 -0.9449,0 -1.8898,0 -2.8347,0 -0.31535,0 -1.29611,0.0461 -1.52638,0 -0.15937,-0.0319 -0.28192,-0.16665 -0.4361,-0.21805 -0.20687,-0.069 -0.4473,0.069 -0.65416,0 -0.0975,-0.0325 -0.12616,-0.17206 -0.21806,-0.21806 -0.13002,-0.065 -0.2982,0.046 -0.43611,0 -0.30837,-0.10279 -0.55347,-0.3724 -0.87221,-0.4361 -0.23633,-0.0473 -0.83793,0.0631 -1.09027,0 -0.22299,-0.0557 -0.43118,-0.16236 -0.65416,-0.21806 -0.17643,-0.0441 -1.05827,0 -1.09027,0 -0.0727,0 -0.15305,0.0325 -0.21805,0 -0.0919,-0.046 -0.12616,-0.17205 -0.21806,-0.21805 -0.11637,-0.0582 -0.87003,0.044 -1.09027,0 -0.29386,-0.0588 -0.57835,-0.15926 -0.87221,-0.21806 -0.14255,-0.0285 -0.29074,0 -0.43611,0 -0.50879,0 -1.01759,0 -1.52638,0 -0.36342,0 -0.72684,0 -1.09027,0 -0.0727,0 -0.15055,0.027 -0.21805,0 -0.30181,-0.12072 -0.56384,-0.33331 -0.87222,-0.4361 -0.24057,-0.0802 -0.99961,0.0617 -1.30832,0 -0.29387,-0.0588 -0.57661,-0.16876 -0.87221,-0.21806 -0.35848,-0.0597 -0.7318,0.0598 -1.09027,0 -0.22672,-0.0378 -0.43316,-0.15495 -0.65416,-0.21805 -0.28816,-0.0823 -0.59676,-0.1 -0.87222,-0.21805 -0.24088,-0.10324 -0.41084,-0.33881 -0.65416,-0.43611 -0.20246,-0.081 -0.43611,0 -0.65416,0 -0.21269,0 -1.56568,0.0358 -1.74443,0 -0.15938,-0.0319 -0.27844,-0.17866 -0.43611,-0.21806 -0.22588,-0.0565 -0.62218,0 -0.87222,0 -0.50879,0 -1.01758,0 -1.52637,0 -1.59906,0 -3.19813,0 -4.79719,0 -1.09027,0 -2.18054,0 -3.27081,0 -0.22675,0 -1.13679,-0.0429 -1.30832,0 -0.15767,0.0394 -0.27673,0.18616 -0.43611,0.21806 -0.21382,0.0428 -0.44261,-0.0529 -0.65416,0 -0.0997,0.0249 -0.11835,0.19315 -0.21805,0.21805 -0.21154,0.0529 -0.43611,0 -0.65416,0 -0.43611,0 -0.87222,0 -1.30833,0 -0.14536,0 -0.29507,-0.0353 -0.4361,0 -0.15768,0.0394 -0.29074,0.14536 -0.43611,0.21806 -0.29074,0.14536 -0.56384,0.33331 -0.87222,0.4361 -0.13791,0.046 -0.29073,0 -0.4361,0 -0.21806,0 -0.43611,0 -0.65417,0 -0.14536,0 -0.29356,-0.0285 -0.4361,0 -0.22539,0.0451 -0.42878,0.17296 -0.65416,0.21806 -0.14255,0.0285 -0.29074,0 -0.43611,0 -0.29074,0 -0.58148,0 -0.87222,0 -0.14537,0 -0.29356,-0.0285 -0.43611,0 -0.22538,0.0451 -0.42877,0.17295 -0.65416,0.21805 -0.35636,0.0713 -0.7305,-0.0514 -1.09027,0 -0.29667,0.0424 -0.57834,0.15925 -0.87221,0.21805 -0.19625,0.0392 -0.45355,0 -0.65416,0 -0.12995,0 -1.47278,-0.0268 -1.52638,0 -0.18388,0.0919 -0.27164,0.31276 -0.43611,0.43611 -0.37742,0.28306 -0.44236,0.21806 -0.87221,0.21806 -0.0727,0 -0.14756,-0.0176 -0.21806,0 -0.22298,0.0557 -0.42744,0.18025 -0.65416,0.21805 -0.35848,0.0597 -0.72684,0 -1.09027,0 -0.14537,0 -0.29074,0 -0.4361,0 -0.0727,0 -0.15996,-0.0436 -0.21806,0 -0.2467,0.18502 -0.40746,0.46914 -0.65416,0.65416 -0.0858,0.0643 -0.95607,-0.0671 -1.09027,0 -0.0919,0.046 -0.12615,0.17205 -0.21805,0.21805 -0.13867,0.0693 -0.90967,-0.0602 -1.09027,0 -0.0975,0.0325 -0.11726,0.19786 -0.21806,0.21806 -0.28509,0.057 -0.58147,0 -0.87221,0 -0.21805,0 -0.43611,0 -0.65416,0 -0.87222,0 -1.74443,0 -2.616648,0 -0.363423,0 -0.726846,0 -1.090269,0 -0.14537,0 -0.296332,-0.0399 -0.436108,0 -0.376358,0.10753 -0.740174,0.26106 -1.090269,0.43611 -0.783376,0.3917 0.780133,0.16071 -0.872216,0.4361 -0.487529,0.0813 -1.041779,-0.0969 -1.526376,0 -0.159372,0.0319 -0.275792,0.19136 -0.436108,0.21806 -0.286783,0.0478 -0.581477,0 -0.872215,0 -0.07268,0 -0.147544,-0.0176 -0.218054,0 -0.222986,0.0557 -0.431175,0.16235 -0.654162,0.21805 -0.145167,0.0363 -1.274183,0 -1.308323,0 -0.07268,0 -0.149103,-0.023 -0.218053,0 -0.711793,0.23727 -0.182782,0.28486 -1.09027,0.43611 -0.215087,0.0358 -0.440342,-0.0428 -0.654161,0 -0.159372,0.0319 -0.275791,0.19135 -0.436108,0.21805 -0.286782,0.0478 -0.581477,0 -0.872215,0 -0.07268,0 -0.147534,-0.0176 -0.218054,0 -0.222986,0.0557 -0.431175,0.16236 -0.654161,0.21806 -0.200847,0.0502 -0.458252,-0.0653 -0.654162,0 -0.154187,0.0514 -0.28192,0.16665 -0.436107,0.21805 -0.06896,0.023 -0.153044,-0.0325 -0.218054,0 -0.234401,0.1172 -0.410838,0.33881 -0.654162,0.43611 -0.134972,0.054 -0.295079,-0.0353 -0.436107,0 -0.157675,0.0394 -0.276737,0.18615 -0.436108,0.21805 -0.213819,0.0428 -0.438299,-0.0308 -0.654162,0 -0.296674,0.0424 -0.581476,0.14536 -0.872215,0.21806 -0.145369,0.0727 -0.275791,0.19135 -0.436108,0.21805 -0.286782,0.0478 -0.596396,-0.0919 -0.872215,0 -0.195033,0.065 -0.259821,0.33034 -0.436107,0.43611 -0.533599,0.32016 -0.992779,0.11595 -1.526377,0.43611 -0.176286,0.10577 -0.290739,0.29073 -0.436108,0.4361 -0.07268,0.0727 -0.120534,0.18556 -0.218054,0.21806 -0.137909,0.046 -0.290738,0 -0.436107,0 -0.07269,0 -0.153044,-0.0325 -0.218054,0 -0.09194,0.046 -0.126114,0.17205 -0.218054,0.21805 -0.06501,0.0325 -0.145374,0 -0.218054,0 -0.145369,0 -0.298198,-0.046 -0.436108,0 -0.195033,0.065 -0.252228,0.34421 -0.436107,0.43611 -0.06501,0.0325 -0.153044,-0.0325 -0.218054,0 -0.183879,0.0919 -0.252229,0.34421 -0.436108,0.43611 -0.06501,0.0325 -0.153044,-0.0325 -0.218054,0 -0.09194,0.046 -0.126113,0.17205 -0.218053,0.21805 -0.205583,0.10279 -0.448579,0.11526 -0.654162,0.21805 -0.261664,0.13084 -0.392497,0.52333 -0.654161,0.65416 -0.06501,0.0325 -0.153044,-0.0325 -0.218054,0 -0.09194,0.046 -0.126114,0.17206 -0.218054,0.21806 -0.06501,0.0325 -0.153044,-0.0325 -0.218054,0 -0.116459,0.0582 -0.539364,0.53936 -0.654161,0.65416 -0.363423,0.36342 -0.726846,0.72685 -1.090269,1.09027 -0.170319,0.17032 -0.466003,0.52872 -0.654162,0.65416 -0.135231,0.0902 -0.306085,0.12055 -0.436108,0.21805 -0.164466,0.12335 -0.265052,0.32208 -0.436107,0.43611 -0.06048,0.0403 -0.153044,-0.0325 -0.218054,0 -0.09194,0.046 -0.126114,0.17206 -0.218054,0.21806 -0.641691,0.32084 0.287086,-0.50514 -0.436108,0.21805 -0.07268,0.0727 -0.172083,0.12615 -0.218053,0.21805 -0.125604,0.25121 0.242448,0.64197 -0.218054,0.87222 -0.06501,0.0325 -0.153044,-0.0325 -0.218054,0 -0.173996,0.087 -0.750717,0.84181 -0.872215,0.87221 -0.211544,0.0529 -0.442619,-0.0529 -0.654162,0 -0.09972,0.0249 -0.132524,0.16106 -0.218054,0.21806 -0.270462,0.18031 -0.601752,0.2558 -0.872215,0.43611 -0.998935,0.66595 0.926856,-0.3544 -0.654161,0.4361 -0.188159,0.12544 -0.483843,0.48385 -0.654162,0.65417 -0.07268,0.0727 -0.126114,0.17205 -0.218054,0.21805 -0.205583,0.10279 -0.544351,-0.26236 -0.654161,0.21805 -0.171056,0.11404 -0.271641,0.31276 -0.436108,0.43611 -0.209654,0.15724 -0.444507,0.27887 -0.654161,0.43611 -0.164467,0.12335 -0.290739,0.29074 -0.436108,0.43611 -0.218054,0.21805 -0.436108,0.4361 -0.654162,0.65416 -0.07268,0.0727 -0.145373,0.14535 -0.218053,0.21805 -0.07268,0.0727 -0.122614,0.17985 -0.218054,0.21805 -0.278252,0.11131 -0.581477,0.14536 -0.872215,0.21806 -1.072464,0.43326 -0.37057,1.29365 -0.872209,1.9625 -0.09752,0.13003 -0.321183,0.10313 -0.436107,0.21806 -2.09e-4,2.1e-4 3.29e-4,0.65317 0,0.65416 -0.03251,0.0975 -0.172084,0.12611 -0.218054,0.21805 -0.0312,0.0624 0,0.97378 0,1.09027 0,0.72685 0,1.45369 0,2.18054 0,0.36342 0,0.72685 0,1.09027 0,0.0727 0,0.14537 0,0.21805 0,0.0727 0.03251,0.15305 0,0.21806 -0.128903,0.2578 -0.38671,0.3072 -0.654162,0.21805 -0.09752,-0.0325 -0.126114,-0.17208 -0.218054,-0.21805 -0.04887,-0.0244 -0.820399,0 -0.872215,0 -0.218054,0 -0.436108,0 -0.654162,0 -0.145369,0 -0.436107,0.14537 -0.436107,0 0,-0.14537 0.581477,0 0.436107,0 -0.218054,0 -0.442618,-0.0529 -0.654161,0 -0.06963,0.0174 -0.573976,0.57397 -0.654162,0.65416 -0.114797,0.1148 -0.595932,0.5377 -0.654161,0.65416 -0.06501,0.13002 0.06501,0.30609 0,0.43611 -0.04597,0.0919 -0.172084,0.12611 -0.218054,0.21805 -0.03251,0.065 0,0.14537 0,0.21806 0,0.14536 -0.06501,0.30608 0,0.4361 0.70995,1.4199 0.218532,-0.43467 0.654161,0.87222 0.127549,0.38264 -0.229058,0.20705 0.218054,0.65416 0.07268,0.0727 0.126114,0.17208 0.218054,0.21805 0.06501,0.0325 0.145369,0 0.218054,0 0.145369,0.0727 0.300876,0.1279 0.436108,0.21806 0.171055,0.11403 0.290738,0.29074 0.436107,0.43611 0.508795,0.50879 1.017586,1.01758 1.526377,1.52637 0.14537,0.14537 0.271641,0.31276 0.436108,0.43611 0.209654,0.15724 0.444507,0.27887 0.654162,0.43611 0.08223,0.0617 0.145369,0.14537 0.218053,0.21805 0.218054,0.21806 0.436108,0.43611 0.654162,0.65416 0.218054,0.21806 0.407462,0.46914 0.654162,0.65416 0.05815,0.0436 0.145369,0 0.218053,0 0.218054,0.14537 0.449521,0.2724 0.654162,0.43611 0.943146,0.94315 -0.05777,0.0342 0.872215,0.65416 0.08553,0.057 0.120538,0.18555 0.218054,0.21806 0.992643,0 0.01247,-0.10279 0.654162,0.21805 0.06501,0.0325 0.157576,-0.0403 0.218054,0 0.171055,0.11404 0.265052,0.32207 0.436107,0.43611 0.06048,0.0403 0.153043,-0.0325 0.218054,0 0.09194,0.046 0.145369,0.14537 0.218054,0.21805 0.145369,0.0727 0.285205,0.1577 0.436108,0.21806 0.213409,0.0854 0.431175,0.1623 0.654161,0.21805 0.07052,0.0176 0.157577,-0.0403 0.218054,0 0.171056,0.11404 0.265052,0.32207 0.436108,0.43611 0.06048,0.0403 0.149099,-0.023 0.218054,0 0.154187,0.0514 0.276736,0.18618 0.436107,0.21805 0.285093,0.057 0.581477,0 0.872216,0 0.654161,0 1.308323,0 1.962485,0 0.726846,0 1.453692,0 2.180538,0 0.363423,0 0.731791,0.0598 1.090269,0 0.226722,-0.0378 0.426623,-0.18555 0.654162,-0.21805 0.287816,-0.0411 0.583255,0.0321 0.872215,0 0.368354,-0.0409 0.722511,-0.17209 1.09027,-0.21806 0.21637,-0.027 0.440342,0.0428 0.654161,0 0.159372,-0.0319 0.276736,-0.18618 0.436108,-0.21805 0.213819,-0.0428 0.436108,0 0.654161,0 0.218054,0 0.436108,0 0.654162,0 0.218054,0 0.442618,0.0529 0.654162,0 0.09972,-0.0249 0.126114,-0.17208 0.218053,-0.21805 0.06501,-0.0325 0.14537,0 0.218054,0 0.14537,0 0.290739,0 0.436108,0 0.436108,0 0.872215,0 1.308323,0 0.799531,0 1.599062,0 2.398592,0 0.218054,0 0.440343,-0.0428 0.654162,0 0.159372,0.0319 0.276736,0.18618 0.436108,0.21805 0.908557,0.18171 0.363423,-0.12114 1.090269,0 2.609278,0.43488 0.0987,-0.0597 1.090269,0.43611 0.141653,0.0708 0.951954,-0.0692 1.09027,0 0.09194,0.046 0.120537,0.18555 0.218053,0.21805 0.94409,0.3147 -0.08014,-0.41685 0.872216,0.21806 0.08553,0.057 0.13582,0.15637 0.218054,0.21805 0.209654,0.15724 0.444507,0.27887 0.654161,0.43611 0.241706,0.18128 0.40304,0.48674 0.654162,0.65416 0.135231,0.0901 0.300876,0.1279 0.436108,0.21805 0.08553,0.057 0.145369,0.14537 0.218053,0.21806 0.363423,0.36342 0.726847,0.72684 1.09027,1.09027 0.07268,0.0727 0.120537,0.18554 0.218054,0.21805 0.137909,0.046 0.290738,0 0.436107,0 0.145369,0 0.290739,0 0.436108,0 0.116487,0 1.027862,0.0312 1.090269,0 0.09194,-0.046 0.126114,-0.17208 0.218054,-0.21805 0.0125,-0.006 1.018286,-0.036 1.090269,0 0.09194,0.046 0.126115,0.17208 0.218054,0.21805 0.06501,0.0325 0.153043,-0.0325 0.218054,0 0.09194,0.046 0.126114,0.17208 0.218054,0.21805 0.06501,0.0325 0.149099,-0.023 0.218054,0 0.154187,0.0514 0.28192,0.16666 0.436107,0.21806 0.149985,0.05 0.525506,-0.0643 0.654162,0 0.234401,0.1172 0.410837,0.33878 0.654162,0.4361 0.134972,0.054 0.290738,0 0.436107,0 0.864865,0 0.443458,0 1.308323,0 0.290739,0 0.581473,0 0.872213,0 0.36343,0 0.73179,0.0598 1.09027,0 2.63585,-0.4393 0.40911,-0.49065 3.27081,-0.87221 0.64842,-0.0865 1.30832,0 1.96248,0 0.29074,0 0.5964,0.0919 0.87222,0 0.19503,-0.065 0.26505,-0.32207 0.43611,-0.43611 0.10065,-0.0671 1.14289,0.0552 1.30832,0 0.0975,-0.0325 0.12612,-0.17208 0.21805,-0.21805 0.11531,-0.0577 0.76599,0.0266 0.87222,0 0.15768,-0.0394 0.28192,-0.16666 0.43611,-0.21806 0.069,-0.023 0.1491,0.023 0.21805,0 0.15419,-0.0514 0.28192,-0.16665 0.43611,-0.21805 0.12303,-0.041 0.51088,0 0.65416,0 0.58148,0 1.16295,0 1.74443,0 1.74443,0 3.48886,0 5.23329,0 0.43611,0 0.87222,0 1.30833,0 0.14537,0 0.30113,0.054 0.43611,0 0.24332,-0.0973 0.41976,-0.31891 0.65416,-0.43611 0.065,-0.0325 0.14635,0.012 0.21805,0 0.36558,-0.0609 0.72469,-0.15712 1.09027,-0.21805 0.0717,-0.012 0.1491,0.023 0.21805,0 0.15419,-0.0514 0.27844,-0.17864 0.43611,-0.21806 0.14103,-0.0353 0.29508,0.0353 0.43611,0 0.15767,-0.0394 0.27843,-0.17863 0.43611,-0.21805 0.14103,-0.0353 0.30608,0.065 0.4361,0 0.18388,-0.0919 0.25983,-0.33033 0.43611,-0.43611 0.15437,-0.66486 0.60417,-0.084 0.87222,-0.21805 0.0919,-0.046 0.12053,-0.18555 0.21805,-0.21805 0.11052,-0.0368 1.34812,0 1.52638,0 0.36342,0 0.72684,0 1.09027,0 0.14537,0 0.29508,-0.0353 0.43611,0 0.48852,0.12213 0.60855,0.57387 1.09026,0.65416 0.28679,0.0478 0.58544,-0.0478 0.87222,0 0.16032,0.0267 0.2852,0.15769 0.43611,0.21805 0.21341,0.0854 0.45707,0.0998 0.65416,0.21805 0.17629,0.10578 0.27164,0.31276 0.43611,0.43611 0.53718,0.40289 0.62535,0.0946 0.87221,0.21806 0.0919,0.046 0.12054,0.18554 0.21806,0.21805 0.12404,0.0414 0.88489,0 1.09027,0 0.0311,0 1.0527,0.025 1.09026,0 0.17106,-0.11404 0.26506,-0.32207 0.43611,-0.43611 0.0477,-0.0318 1.0125,0.0195 1.09027,0 0.15768,-0.0394 0.28192,-0.16666 0.43611,-0.21805 0.069,-0.023 0.14537,0 0.21805,0 0.36343,0 0.73179,0.0598 1.09027,0 0.22672,-0.0378 0.42878,-0.17298 0.65416,-0.21806 0.14255,-0.0285 0.29074,0 0.43611,0 0.36343,0 0.72685,0 1.09027,0 0.36342,0 0.72685,0 1.09027,0 0.14537,0 0.29074,0 0.43611,0 0.0727,0 0.15757,-0.0403 0.21805,0 0.17106,0.11404 0.27164,0.31276 0.43611,0.43611 0.13002,0.0975 0.30088,0.1279 0.43611,0.21806 0.17105,0.11403 0.29074,0.29073 0.43611,0.4361 0.14536,0.14537 0.29073,0.29074 0.4361,0.43611 0.0727,0.0727 0.13253,0.16104 0.21806,0.21806 0.13523,0.0901 0.30087,0.1279 0.4361,0.21805 0.0855,0.057 0.14537,0.14537 0.21806,0.21805 0.29074,0.14537 0.59348,0.26887 0.87221,0.43611 0.0882,0.0529 0.12054,0.18555 0.21806,0.21805 0.13791,0.046 0.29508,-0.0353 0.43611,0 0.15767,0.0394 0.28192,0.16666 0.4361,0.21806 0.069,0.023 0.14537,0 0.21806,0 0.21805,0 0.4361,0 0.65416,0 0.21805,0 0.4517,0.081 0.65416,0 0.24332,-0.0973 0.41976,-0.31891 0.65416,-0.43611 0.20558,-0.10279 0.44858,-0.11526 0.65416,-0.21805 0.0919,-0.046 0.13253,-0.16104 0.21806,-0.21806 0.13523,-0.0901 0.30608,-0.12053 0.4361,-0.21805 0.16447,-0.12335 0.26506,-0.32207 0.43611,-0.43611 0.12096,-0.0806 0.30609,0.065 0.43611,0 0.0919,-0.046 0.12054,-0.18555 0.21805,-0.21805 0.0997,-0.0333 0.77519,0.0485 0.87222,0 0.0919,-0.046 0.14537,-0.14537 0.21805,-0.21806 0.21806,0 0.44035,0.0428 0.65416,0 0.15938,-0.0319 0.2758,-0.19133 0.43611,-0.21805 0.57357,-0.0956 1.17087,0.0956 1.74443,0 0.32064,-0.0534 0.55687,-0.35727 0.87222,-0.43611 0.14103,-0.0353 0.29074,0 0.43611,0 0.36342,0 0.72684,0 1.09027,0 0.58147,0 1.16295,0 1.74443,0 0.21805,0 0.44261,-0.0529 0.65416,0 0.15767,0.0394 0.28192,0.16666 0.43611,0.21806 0.069,0.023 0.14909,-0.023 0.21805,0 0.15419,0.0514 0.27674,0.18618 0.43611,0.21805 1.24007,0 0.14356,-0.0975 1.09027,0.21805 0.12631,0.0421 0.68325,0 0.87221,0 0.9449,0 1.8898,0 2.8347,0 0.50879,0 1.01837,0.0282 1.52638,0 0.94623,-0.0526 1.88783,-0.1786 2.8347,-0.21805 1.45243,-0.0605 2.90738,0 4.36108,0 1.30832,0 2.61664,0 3.92497,0 0.50879,0 1.02746,0.0998 1.52637,0 0.25698,-0.0514 0.40218,-0.36411 0.65416,-0.43611 0.27956,-0.0799 0.58148,0 0.87222,0 0.43611,0 0.87222,0 1.30832,0 0.14537,0 0.29074,0 0.43611,0 0.14537,0 0.2982,0.046 0.43611,0 0.0975,-0.0325 0.12054,-0.18555 0.21805,-0.21805 0.13791,-0.046 0.29074,0 0.43611,0 0.49897,0 0.56222,0.046 1.09027,-0.21806 0.0919,-0.046 0.12054,-0.18554 0.21805,-0.21805 0.13791,-0.046 0.29074,0 0.43611,0 0.17826,0 1.41586,0.0368 1.52638,0 0.19503,-0.065 0.25223,-0.34417 0.43611,-0.43611 0.065,-0.0325 0.14536,0 0.21805,0 0.14537,0 0.29508,0.0353 0.43611,0 0.15767,-0.0394 0.28192,-0.16665 0.4361,-0.21805 0.28431,-0.0948 0.57835,-0.15928 0.87222,-0.21805 0.0713,-0.0143 0.15304,0.0325 0.21805,0 0.0919,-0.046 0.12054,-0.18555 0.21806,-0.21806 0.13791,-0.046 0.30608,0.065 0.43611,0 0.18387,-0.0919 0.29073,-0.29074 0.4361,-0.43611 0.0727,-0.0727 0.12054,-0.18554 0.21806,-0.21805 0.0459,-0.0153 0.97685,-0.0283 1.09027,0 0.22298,0.0557 0.43117,0.16231 0.65416,0.21805 0.1718,0.043 0.72997,0 0.87221,0 0.14537,0 0.29074,0 0.43611,0 0.0727,0 0.1491,0.023 0.21805,0 0.10019,-0.0334 0.59179,-0.24899 0.65417,-0.4361 0.046,-0.13791 -0.046,-0.2982 0,-0.43611 0.0325,-0.0975 0.17208,-0.12612 0.21805,-0.21806 0.0325,-0.065 -0.0325,-0.15304 0,-0.21805 0.046,-0.0919 0.17208,-0.12611 0.21805,-0.21805 0.1028,-0.20559 0.11527,-0.44858 0.21806,-0.65416 0.13083,-0.26167 0.52333,-0.3925 0.65416,-0.65417 0.0325,-0.065 -0.0325,-0.15304 0,-0.21805 0.046,-0.0919 0.17208,-0.12611 0.21805,-0.21805 0.0244,-0.0489 0,-0.8204 0,-0.87222 0,-0.36342 0,-0.72684 0,-1.09027 0,-0.0727 0,-0.14537 0,-0.21805 0,-0.0727 0.0325,-0.15305 0,-0.21806 -0.11721,-0.2344 -0.29075,-0.43612 -0.43613,-0.65418 z"
             style="fill:none;fill-rule:evenodd;stroke:#000000;stroke-width:1px;stroke-linecap:butt;stroke-linejoin:miter;stroke-opacity:1" />
          <path
             inkscape:connector-curvature="0"
             id="path3602"
             d="m 104.66584,919.13131 c -0.29074,0.0727 -0.61524,0.0639 -0.87222,0.21805 -0.13936,0.0836 -0.13742,0.29499 -0.21805,0.43611 -0.21028,0.36798 -0.46462,0.71119 -0.65416,1.09027 -0.0325,0.065 0.0403,0.15757 0,0.21805 -0.43157,0.64735 -0.50707,0.28901 -1.09027,0.87221 -0.11493,0.11493 -0.0911,0.33458 -0.21806,0.43611 -0.25382,0.20306 -0.58147,0.29074 -0.87221,0.43611 -0.64428,0.32214 -1.266448,0.6634 -1.962486,0.87222 -0.35499,0.10649 -0.748158,0.0755 -1.090269,0.21805 -2.31878,0.96616 -0.679663,0.93816 -3.270807,1.30832 -0.667355,0.0953 -1.53164,-0.17128 -2.180539,0.21806 -0.486786,0.29207 -0.80057,0.83639 -1.308323,1.09027 -0.395447,0.19772 -0.870643,0.15552 -1.308323,0.21805 -0.07195,0.0103 -0.166658,-0.0514 -0.218054,0 -0.18531,0.18531 -0.250797,0.46885 -0.436107,0.65416 -0.0514,0.0514 -0.153043,-0.0325 -0.218054,0 -0.09194,0.046 -0.145369,0.14537 -0.218054,0.21805 -0.07268,0.0727 -0.145369,0.14537 -0.218054,0.21806 -0.218054,0.21805 -0.469136,0.40746 -0.654161,0.65416 -0.09752,0.13002 -0.145369,0.29074 -0.218054,0.43611 -0.07268,0.14537 -0.145369,0.29074 -0.218054,0.43611 -0.07268,0.14536 -0.186179,0.27673 -0.218054,0.4361 -0.07127,0.35637 0,0.72685 0,1.09027 0,0.0727 0.01763,0.14754 0,0.21806 -0.05575,0.22298 -0.162307,0.43117 -0.218053,0.65416 -0.03526,0.14103 0.08064,0.31515 0,0.4361 -0.114037,0.17106 -0.322071,0.26506 -0.436108,0.43611 -0.04032,0.0605 0.03251,0.15305 0,0.21806 -0.08922,0.17843 -0.517209,0.47155 -0.654162,0.65416 -0.15724,0.20965 -0.250797,0.46885 -0.436107,0.65416 -0.0514,0.0514 -0.153043,-0.0325 -0.218054,0 -0.234401,0.1172 -0.419761,0.31891 -0.654162,0.43611 -0.06501,0.0325 -0.157576,-0.0403 -0.218053,0 -0.243807,0.16253 -0.634878,0.63488 -0.872216,0.87221"
             style="fill:none;fill-rule:evenodd;stroke:#000000;stroke-width:0.29055122;stroke-linecap:butt;stroke-linejoin:miter;stroke-miterlimit:4;stroke-dasharray:none;stroke-opacity:1" />
          <path
             style="fill:none;fill-rule:evenodd;stroke:#000000;stroke-width:0.29055122;stroke-linecap:butt;stroke-linejoin:miter;stroke-miterlimit:4;stroke-dasharray:none;stroke-opacity:1"
             d="m 122.76431,919.78547 c -0.29074,0.0727 -0.61524,0.0639 -0.87222,0.21805 -0.13936,0.0836 -0.13742,0.29499 -0.21805,0.43611 -0.21028,0.36798 -0.46462,0.71119 -0.65416,1.09027 -0.0325,0.065 0.0403,0.15757 0,0.21805 -0.43157,0.64735 -0.50707,0.28901 -1.09027,0.87221 -0.11493,0.11493 -0.0911,0.33458 -0.21806,0.43611 -0.25382,0.20306 -0.58147,0.29074 -0.87221,0.43611 -0.64428,0.32214 -1.26645,0.6634 -1.96249,0.87222 -0.35499,0.10649 -0.74815,0.0755 -1.09027,0.21805 -2.31878,0.96616 -0.67966,0.93816 -3.2708,1.30832 -0.66736,0.0953 -1.53164,-0.17128 -2.18054,0.21806 -0.48679,0.29207 -0.80057,0.83639 -1.30832,1.09027 -0.39545,0.19772 -0.87065,0.15552 -1.30833,0.21805 -0.072,0.0103 -0.16666,-0.0514 -0.21805,0 -0.18531,0.18531 -0.2508,0.46885 -0.43611,0.65416 -0.0514,0.0514 -0.15304,-0.0325 -0.21805,0 -0.0919,0.046 -0.14537,0.14537 -0.21806,0.21805 -0.0727,0.0727 -0.14537,0.14537 -0.21805,0.21806 -0.21805,0.21805 -0.46914,0.40746 -0.65416,0.65416 -0.0975,0.13002 -0.14537,0.29074 -0.21806,0.43611 -0.0727,0.14537 -0.14536,0.29074 -0.21805,0.43611 -0.0727,0.14536 -0.18618,0.27673 -0.21805,0.4361 -0.0713,0.35637 0,0.72685 0,1.09027 0,0.0727 0.0176,0.14754 0,0.21806 -0.0558,0.22298 -0.16231,0.43117 -0.21806,0.65416 -0.0353,0.14103 0.0806,0.31515 0,0.4361 -0.11403,0.17106 -0.32207,0.26506 -0.4361,0.43611 -0.0403,0.0605 0.0325,0.15305 0,0.21806 -0.0892,0.17843 -0.51721,0.47155 -0.65417,0.65416 -0.15724,0.20965 -0.25079,0.46885 -0.4361,0.65416 -0.0514,0.0514 -0.15305,-0.0325 -0.21806,0 -0.2344,0.1172 -0.41976,0.31891 -0.65416,0.43611 -0.065,0.0325 -0.15758,-0.0403 -0.21805,0 -0.24381,0.16253 -0.63488,0.63488 -0.87222,0.87221"
             id="path4440"
             inkscape:connector-curvature="0" />
          <path
             inkscape:transform-center-y="-0.19894943"
             inkscape:transform-center-x="6.0717664"
             inkscape:connector-curvature="0"
             id="path4442"
             d="m 147.8405,919.13131 c -0.29074,0.0727 -0.61524,0.0639 -0.87222,0.21805 -0.13936,0.0836 -0.13742,0.29499 -0.21805,0.43611 -0.21028,0.36798 -0.46462,0.71119 -0.65416,1.09027 -0.0325,0.065 0.0403,0.15757 0,0.21805 -0.43157,0.64735 -0.50707,0.28901 -1.09027,0.87221 -0.11493,0.11493 -0.0911,0.33458 -0.21806,0.43611 -0.25382,0.20306 -0.58147,0.29074 -0.87221,0.43611 -0.64428,0.32214 -1.26645,0.6634 -1.96249,0.87222 -0.35499,0.10649 -0.74815,0.0755 -1.09027,0.21805 -2.31878,0.96616 -0.67966,0.93816 -3.2708,1.30832 -0.66736,0.0953 -1.53164,-0.17128 -2.18054,0.21806 -0.48679,0.29207 -0.80057,0.83639 -1.30832,1.09027 -0.39545,0.19772 -0.87065,0.15552 -1.30833,0.21805 -0.072,0.0103 -0.16666,-0.0514 -0.21805,0 -0.18531,0.18531 -0.2508,0.46885 -0.43611,0.65416 -0.0514,0.0514 -0.15304,-0.0325 -0.21805,0 -0.0919,0.046 -0.14537,0.14537 -0.21806,0.21805 -0.0727,0.0727 -0.14537,0.14537 -0.21805,0.21806 -0.21805,0.21805 -0.46914,0.40746 -0.65416,0.65416 -0.0975,0.13002 -0.14537,0.29074 -0.21806,0.43611 -0.0727,0.14537 -0.14536,0.29074 -0.21805,0.43611 -0.0727,0.14536 -0.18618,0.27673 -0.21805,0.4361 -0.0713,0.35637 0,0.72685 0,1.09027 0,0.0727 0.0176,0.14754 0,0.21806 -0.0558,0.22298 -0.16231,0.43117 -0.21806,0.65416 -0.0353,0.14103 0.0806,0.31515 0,0.4361 -0.11403,0.17106 -0.32207,0.26506 -0.4361,0.43611 -0.0403,0.0605 0.0325,0.15305 0,0.21806 -0.0892,0.17843 -0.51721,0.47155 -0.65417,0.65416 -0.15724,0.20965 -0.25079,0.46885 -0.4361,0.65416 -0.0514,0.0514 -0.15305,-0.0325 -0.21806,0 -0.2344,0.1172 -0.41976,0.31891 -0.65416,0.43611 -0.065,0.0325 -0.15758,-0.0403 -0.21805,0 -0.24381,0.16253 -0.63488,0.63488 -0.87222,0.87221"
             style="fill:none;fill-rule:evenodd;stroke:#000000;stroke-width:0.29055122;stroke-linecap:butt;stroke-linejoin:miter;stroke-miterlimit:4;stroke-dasharray:none;stroke-opacity:1" />
          <path
             style="fill:none;fill-rule:evenodd;stroke:#000000;stroke-width:0.29055122;stroke-linecap:butt;stroke-linejoin:miter;stroke-miterlimit:4;stroke-dasharray:none;stroke-opacity:1"
             d="m 172.91669,921.5299 c -0.29074,0.0727 -0.61524,0.0639 -0.87222,0.21805 -0.13936,0.0836 -0.13742,0.29499 -0.21805,0.43611 -0.21028,0.36798 -0.46462,0.71119 -0.65416,1.09027 -0.0325,0.065 0.0403,0.15757 0,0.21805 -0.43157,0.64735 -0.50707,0.28901 -1.09027,0.87221 -0.11493,0.11493 -0.0911,0.33458 -0.21806,0.43611 -0.25382,0.20306 -0.58147,0.29074 -0.87221,0.43611 -0.64428,0.32214 -1.26645,0.6634 -1.96249,0.87222 -0.35499,0.10649 -0.74815,0.0755 -1.09027,0.21805 -2.31878,0.96616 -0.67966,0.93816 -3.2708,1.30832 -0.66736,0.0953 -1.53164,-0.17128 -2.18054,0.21806 -0.48679,0.29207 -0.80057,0.83639 -1.30832,1.09027 -0.39545,0.19772 -0.87065,0.15552 -1.30833,0.21805 -0.072,0.0103 -0.16666,-0.0514 -0.21805,0 -0.18531,0.18531 -0.2508,0.46885 -0.43611,0.65416 -0.0514,0.0514 -0.15304,-0.0325 -0.21805,0 -0.0919,0.046 -0.14537,0.14537 -0.21806,0.21805 -0.0727,0.0727 -0.14537,0.14537 -0.21805,0.21806 -0.21805,0.21805 -0.46914,0.40746 -0.65416,0.65416 -0.0975,0.13002 -0.14537,0.29074 -0.21806,0.43611 -0.0727,0.14537 -0.14536,0.29074 -0.21805,0.43611 -0.0727,0.14536 -0.18618,0.27673 -0.21805,0.4361 -0.0713,0.35637 0,0.72685 0,1.09027 0,0.0727 0.0176,0.14754 0,0.21806 -0.0558,0.22298 -0.16231,0.43117 -0.21806,0.65416 -0.0353,0.14103 0.0806,0.31515 0,0.4361 -0.11403,0.17106 -0.32207,0.26506 -0.4361,0.43611 -0.0403,0.0605 0.0325,0.15305 0,0.21806 -0.0892,0.17843 -0.51721,0.47155 -0.65417,0.65416 -0.15724,0.20965 -0.25079,0.46885 -0.4361,0.65416 -0.0514,0.0514 -0.15305,-0.0325 -0.21806,0 -0.2344,0.1172 -0.41976,0.31891 -0.65416,0.43611 -0.065,0.0325 -0.15758,-0.0403 -0.21805,0 -0.24381,0.16253 -0.63488,0.63488 -0.87222,0.87221"
             id="path4444"
             inkscape:connector-curvature="0"
             inkscape:transform-center-x="6.0717664"
             inkscape:transform-center-y="-0.19894943" />
        </g>
        <path
           sodipodi:type="spiral"
           style="fill:none;fill-rule:evenodd;stroke:#000000;stroke-width:1px;stroke-linecap:butt;stroke-linejoin:miter;stroke-opacity:1"
           id="path6013"
           sodipodi:cx="79.560669"
           sodipodi:cy="855.00238"
           sodipodi:expansion="1"
           sodipodi:revolution="3.0443799"
           sodipodi:radius="5.6861482"
           sodipodi:argument="-16.695436"
           sodipodi:t0="0.149555"
           d="m 79.81399,854.1906 c 0.635478,-0.0215 1.051343,0.62018 1.004204,1.2042 -0.0709,0.8784 -0.959599,1.42553 -1.789036,1.31084 -1.120496,-0.15492 -1.803111,-1.30021 -1.617493,-2.37387 0.23558,-1.36264 1.641336,-2.18234 2.958705,-1.92413 1.604917,0.31457 2.562511,1.98271 2.230782,3.54354 -0.392616,1.8473 -2.324259,2.94325 -4.128374,2.53742 -2.08977,-0.47008 -3.324372,-2.6659 -2.844071,-4.71321 0.547162,-2.3323 3.007627,-3.70575 5.298043,-3.15071 2.574881,0.62397 4.087331,3.3494 3.45736,5.88288 -0.700595,2.81749 -3.691217,4.46904 -6.467712,3.764 -1.016904,-0.25822 -1.949892,-0.80921 -2.672976,-1.56869" />
        <path
           sodipodi:type="spiral"
           style="fill:none;fill-rule:evenodd;stroke:#000000;stroke-width:1px;stroke-linecap:butt;stroke-linejoin:miter;stroke-opacity:1"
           id="path6015"
           sodipodi:cx="123.96663"
           sodipodi:cy="856.85266"
           sodipodi:expansion="1"
           sodipodi:revolution="3.0443799"
           sodipodi:radius="9.6339331"
           sodipodi:argument="-20.004461"
           sodipodi:t0="0.149555"
           d="m 123.77264,858.28035 c -1.05555,0.21532 -1.93147,-0.73923 -2.01762,-1.72819 -0.12957,-1.48746 1.20059,-2.65242 2.61862,-2.69503 1.91563,-0.0576 3.37938,1.66302 3.37244,3.50906 -0.009,2.34293 -2.12581,4.10924 -4.39949,4.04984 -2.76998,-0.0724 -4.84073,-2.58877 -4.72725,-5.28992 0.13431,-3.19694 3.05184,-5.57323 6.18036,-5.40466 3.62387,0.19526 6.30638,3.51498 6.08206,7.0708 -0.25555,4.0508 -3.97817,7.04 -7.96123,6.75947 -4.47775,-0.31538 -7.77396,-4.4414 -7.43688,-8.85167 0.37488,-4.90469 4.90466,-8.50817 9.74211,-8.11429 1.77173,0.14427 3.48595,0.8013 4.90836,1.86591" />
        <path
           sodipodi:type="spiral"
           style="fill:none;fill-rule:evenodd;stroke:#000000;stroke-width:1px;stroke-linecap:butt;stroke-linejoin:miter;stroke-opacity:1"
           id="path6017"
           sodipodi:cx="160.35484"
           sodipodi:cy="850.06842"
           sodipodi:expansion="1"
           sodipodi:revolution="3.0443799"
           sodipodi:radius="4.3610764"
           sodipodi:argument="-17.699505"
           sodipodi:t0="0.149555"
           d="m 159.93388,849.57024 c 0.24776,-0.42004 0.8342,-0.42491 1.19268,-0.15393 0.53918,0.40757 0.52728,1.2079 0.11154,1.69737 -0.56163,0.66124 -1.58377,0.63134 -2.20206,0.0691 -0.78471,-0.71352 -0.73627,-1.96065 -0.0267,-2.70675 0.86439,-0.90894 2.33808,-0.84168 3.21143,0.0157 1.03365,1.0147 0.94741,2.71586 -0.0581,3.71612 -1.16466,1.15864 -3.09385,1.05334 -4.22081,-0.10045 -1.28384,-1.3144 -1.15941,-3.472 0.14284,-4.72549 1.464,-1.40917 3.85028,-1.26559 5.23019,0.18523 1.53461,1.61347 1.37183,4.22863 -0.22764,5.73488 -0.58581,0.55167 -1.3265,0.92849 -2.11566,1.08365" />
      </g>
    </g>
    <flowRoot
       xml:space="preserve"
       id="flowRoot6019"
       style="fill:black;stroke:none;stroke-opacity:1;stroke-width:1px;stroke-linejoin:miter;stroke-linecap:butt;fill-opacity:1;font-family:'Latin Modern Mono';font-style:normal;font-weight:normal;font-size:30px;line-height:125%;letter-spacing:0px;word-spacing:0px;-inkscape-font-specification:'Latin Modern Mono, Normal';font-stretch:normal;font-variant:normal;text-anchor:start;text-align:start;writing-mode:lr"><flowRegion
         id="flowRegion6021"><rect
           id="rect6023"
           width="227.58052"
           height="65.99218"
           x="235.59825"
           y="218.47665" /></flowRegion><flowPara
         id="flowPara6025" /></flowRoot>    <flowRoot
       xml:space="preserve"
       id="flowRoot6027"
       style="font-style:normal;font-variant:normal;font-weight:normal;font-stretch:normal;line-height:125%;font-family:'Latin Modern Mono';-inkscape-font-specification:'Latin Modern Mono, Normal';text-align:start;letter-spacing:0px;word-spacing:0px;writing-mode:lr-tb;baseline-shift:sub;text-anchor:start;fill:#000000;fill-opacity:1;stroke:none;stroke-width:1px;stroke-linecap:butt;stroke-linejoin:miter;stroke-opacity:1;font-size:65.00000581%;"
       transform="translate(0,680.31495)"><flowRegion
         id="flowRegion6029"><rect
           id="rect6031"
           width="177.62381"
           height="72.159676"
           x="248.54999"
           y="222.17715"
           style="font-size:65.00000581%;baseline-shift:sub;" /></flowRegion><flowPara
         id="flowPara6033" /></flowRoot>    <flowRoot
       xml:space="preserve"
       id="flowRoot6043"
       style="fill:black;stroke:none;stroke-opacity:1;stroke-width:1px;stroke-linejoin:miter;stroke-linecap:butt;fill-opacity:1;font-family:'Latin Modern Mono';font-style:normal;font-weight:normal;font-size:30px;line-height:125%;letter-spacing:0px;word-spacing:0px;-inkscape-font-specification:'Latin Modern Mono, Normal';font-stretch:normal;font-variant:normal;text-anchor:start;text-align:start;writing-mode:lr"><flowRegion
         id="flowRegion6045"><rect
           id="rect6047"
           width="72.776428"
           height="33.921215"
           x="263.96872"
           y="233.89539" /></flowRegion><flowPara
         id="flowPara6049" /></flowRoot>    <flowRoot
       xml:space="preserve"
       id="flowRoot6051"
       style="font-style:normal;font-variant:normal;font-weight:normal;font-stretch:normal;font-size:30px;line-height:125%;font-family:'Latin Modern Mono';-inkscape-font-specification:'Latin Modern Mono, Normal';text-align:start;letter-spacing:0px;word-spacing:0px;writing-mode:lr-tb;text-anchor:start;fill:#000000;fill-opacity:1;stroke:none;stroke-width:1px;stroke-linecap:butt;stroke-linejoin:miter;stroke-opacity:1"
       transform="translate(32.070971,675.38095)"><flowRegion
         id="flowRegion6053"><rect
           id="rect6055"
           width="146.1696"
           height="56.124191"
           x="225.11351"
           y="214.77615" /></flowRegion><flowPara
         id="flowPara6057">Z1 = sky</flowPara><flowPara
         id="flowPara6059">Z</flowPara></flowRoot>    <flowRoot
       transform="translate(34.537969,708.06867)"
       style="font-style:normal;font-variant:normal;font-weight:normal;font-stretch:normal;font-size:30.00000268px;line-height:125%;font-family:'Latin Modern Mono';-inkscape-font-specification:'Latin Modern Mono, Normal';text-align:start;letter-spacing:0px;word-spacing:0px;writing-mode:lr;text-anchor:start;fill:#000000;fill-opacity:1;stroke:none;stroke-width:1px;stroke-linecap:butt;stroke-linejoin:miter;stroke-opacity:1;"
       id="flowRoot6061"
       xml:space="preserve"><flowRegion
         id="flowRegion6063"><rect
           y="214.77615"
           x="225.11351"
           height="56.124191"
           width="146.1696"
           id="rect6065"
           style="-inkscape-font-specification:'Latin Modern Mono, Normal';font-family:'Latin Modern Mono';font-weight:normal;font-style:normal;font-stretch:normal;font-variant:normal;font-size:30.00000268px;text-anchor:start;text-align:start;writing-mode:lr;line-height:125%;" /></flowRegion><flowPara
         id="flowPara6073">Z2 = land</flowPara></flowRoot>    <path
       style="fill:none;fill-rule:evenodd;stroke:#000000;stroke-width:0.99921271;stroke-linecap:butt;stroke-linejoin:miter;stroke-opacity:1;stroke-miterlimit:4;stroke-dasharray:0.99921271,7.99370169;stroke-dashoffset:0"
       d="m 249.78349,711.91655 c 0,0 0,0 -49.9567,138.15185 38.85524,109.78141 38.85524,109.78141 38.85524,109.78141"
       id="path6469"
       inkscape:connector-curvature="0" />
    <path
       style="fill:none;fill-rule:evenodd;stroke:#000000;stroke-width:0.99139971px;stroke-linecap:butt;stroke-linejoin:miter;stroke-opacity:1"
       d="m 64.755244,905.88506 0.613577,126.12964 117.806609,0"
       id="path7085"
       inkscape:connector-curvature="0" />
    <path
       style="fill:none;fill-rule:evenodd;stroke:#000000;stroke-width:1.00659275px;stroke-linecap:butt;stroke-linejoin:miter;stroke-opacity:1;marker-end:"
       d="m 69.079623,905.88462 0.310901,123.03668 113.167666,0.3099"
       id="path7087"
       inkscape:connector-curvature="0" />
    <path
       style="fill:#000000;fill-opacity:1;fill-rule:evenodd;stroke:#000000;stroke-width:1.13619113px;stroke-linecap:butt;stroke-linejoin:miter;stroke-opacity:1"
       d="m 175.91713,1020.2591 16.02182,11.5005 -15.40621,7.7211 -0.21108,-18.3566 z"
       id="path9205"
       inkscape:connector-curvature="0" />
    <flowRoot
       xml:space="preserve"
       id="flowRoot9209"
       style="font-style:normal;font-variant:normal;font-weight:normal;font-stretch:normal;font-size:30.00000268px;line-height:125%;font-family:'Latin Modern Mono';-inkscape-font-specification:'Latin Modern Mono, Normal';text-align:start;letter-spacing:0px;word-spacing:0px;writing-mode:lr;text-anchor:start;fill:#000000;fill-opacity:1;stroke:none;stroke-width:1px;stroke-linecap:butt;stroke-linejoin:miter;stroke-opacity:1;"
       transform="translate(-11.3388,682.9316)"><flowRegion
         id="flowRegion9211"><rect
           id="rect9213"
           width="225.90376"
           height="40.994118"
           x="232.00928"
           y="324.07541"
           style="-inkscape-font-specification:'Latin Modern Mono, Normal';font-family:'Latin Modern Mono';font-weight:normal;font-style:normal;font-stretch:normal;font-variant:normal;font-size:30.00000268px;text-anchor:start;text-align:start;writing-mode:lr;line-height:125%;" /></flowRegion><flowPara
         id="flowPara9219">P(Z1, Z2)</flowPara></flowRoot>  </g>
</svg>
